<svg width="158" height="172" viewBox="0 0 158 172" fill="none" xmlns="http://www.w3.org/2000/svg">
<path d="M89.9502 103.894C114.646 77.6998 93.0666 37.5692 85.4172 41.3248C77.7678 45.0804 46.7214 71.6293 62.823 91.423C70.0475 100.304 74.3444 101.674 76.0678 101.674C74.1796 103.006 72.5745 104.7 71.346 106.658C62.1855 119.602 33.571 100.588 30.5018 72.1728C27.9992 48.1511 71.1807 26.3025 84.6381 20.2085C86.999 19.0747 88.5808 18.4606 88.5808 18.4606C88.5808 18.4606 137.948 20.5392 122.673 88.14C107.397 155.741 35.318 143.529 13.739 141.262C-7.83991 138.994 2.45385 171.755 2.45385 171.755C102.156 177.282 147.156 87.7149 156.93 58.6149C166.704 29.5148 107.35 -16.6389 67.2143 6.08369C27.0784 28.8063 -3.82624 81.9512 12.3462 112.61C28.5186 143.269 65.2784 130.113 89.9502 103.894Z" fill="#FFCE5B"/>
</svg>
