<svg width="182" height="191" viewBox="0 0 182 191" fill="none" xmlns="http://www.w3.org/2000/svg">
<path d="M97.7534 2.0829L63.3795 18.5927C63.3795 18.5927 99.8635 43.5188 76.2612 47.9474C52.659 52.376 32.1198 51.341 37.1227 31.8448C39.9985 20.6629 26.6744 21.9355 14.7626 25.0576C5.45448 27.518 -2.10099 50.5097 1.4385 59.5027L35.9826 127.544C35.9826 127.544 17.2641 117.194 4.73975 125.593C-7.78458 133.992 5.47155 183.522 33.2089 170.134C60.9462 156.746 48.7622 156.067 48.7622 156.067L70.1012 181.859C72.3711 184.6 75.1978 186.83 78.395 188.403C81.5921 189.976 85.0871 190.855 88.6499 190.984C92.2127 191.112 95.7623 190.486 99.0649 189.147C102.367 187.808 105.348 185.787 107.81 183.216L136.739 152.979C136.739 152.979 104.407 119.484 126.529 109.1C148.65 98.7157 165.667 125.881 165.667 125.881L178.889 100.887C181.427 96.1012 182.448 90.6603 181.819 85.283C181.19 79.9056 178.941 74.8448 175.367 70.7692L164.425 58.2471C164.425 58.2471 188.895 2.33757 151.271 9.44715C113.647 16.5567 138.492 26.1945 138.492 26.1945L123.296 7.6994C120.281 4.05037 116.127 1.51419 111.496 0.496086C106.866 -0.522018 102.028 0.036608 97.7534 2.0829Z" fill="#F7941D"/>
<path d="M109.269 77.481C110.367 80.2956 110.57 82.8614 110.182 84.5839C109.794 86.3064 109.976 87.076 108.046 89.1745C106.116 91.2731 101.507 92.397 99.5956 91.2356C97.6841 90.0741 95.7731 88.9122 95.7731 88.9122" stroke="#642714" stroke-width="3"/>
<circle cx="80.0877" cy="86.9047" r="3.92986" transform="rotate(-1.17472 80.0877 86.9047)" fill="#642714"/>
<circle cx="105.01" cy="63.0096" r="3.92986" transform="rotate(-1.17472 105.01 63.0096)" fill="#642714"/>
</svg>
