<svg width="100" height="156" viewBox="0 0 100 156" fill="none" xmlns="http://www.w3.org/2000/svg">
<path d="M96.8496 54.5989C94.7993 51.9423 90.7759 49.8038 79.4551 52.1077C83.1849 42.6378 87.8526 33.5648 93.3883 25.024L93.5427 24.7705C96.9598 18.4212 102.008 7.13342 97.4779 2.61395C94.171 -0.692979 88.6594 1.68807 84.8565 3.78246C84.1951 4.15725 68.6305 13.0971 54.3776 33.9087C52.8564 36.1133 51.3242 38.5493 49.8141 41.1397C41.4586 29.4112 36.0903 28.4081 32.4747 29.0805C30.652 29.3334 28.9108 29.9977 27.3829 31.0233C25.855 32.0489 24.5806 33.4088 23.6563 34.9999C19.247 42.7161 22.8736 55.9437 28.3962 71.5524C17.7479 76.5789 10.0317 80.6024 9.91046 80.6685L9.55775 80.8449L9.2601 81.1095C-1.55355 90.6004 -1.76297 103.641 2.86672 112.349C5.51227 117.364 9.48056 120.297 13.4599 120.297C14.1215 120.298 14.7807 120.217 15.422 120.054C20.9336 118.632 26.3238 116.89 31.5819 114.961C31.6704 121.89 32.1377 128.808 32.9818 135.685C33.5771 140.524 35.473 147.424 39.0335 152.297C39.6585 153.208 40.4934 153.957 41.4679 154.478C42.4424 155 43.5279 155.28 44.6332 155.295C45.0919 155.294 45.5496 155.249 46.0001 155.163C50.2109 154.336 53.7934 149.872 54.5099 147.028C55.4028 143.467 56.4389 138.374 57.7397 131.915L57.905 131.088C60.6167 134.142 63.3504 136.379 65.985 137.25C67.7782 137.883 69.6612 138.226 71.5626 138.264C74.042 138.331 76.4501 137.43 78.2757 135.751C83.1589 131.198 83.5117 121.046 79.378 104.71C78.893 102.77 77.5371 98.7575 75.575 93.5656C81.8692 89.7627 85.7934 87.073 86.2564 86.7533L86.4879 86.5769C87.2705 85.8604 107.652 68.6092 96.8496 54.5989ZM59.2168 37.7005C72.4445 18.1897 87.3146 9.4813 87.8107 9.1947C90.9412 7.4751 92.4734 7.19971 93.0466 7.17766C93.4545 9.22796 91.2168 15.8527 88.0973 21.695C81.6018 31.8392 76.2243 42.6572 72.0587 53.9596C68.5092 54.9958 64.4417 56.3516 59.79 58.0822C57.5853 53.7942 55.4909 50.1126 53.5509 46.971C55.4248 43.5649 57.3318 40.4563 59.2168 37.7005ZM59.4482 95.0206C55.7224 97.0158 51.6439 99.0771 47.3228 101.116C44.7104 95.7041 42.3624 90.3579 40.5326 85.8274L40.2019 84.9014C41.0507 80.3488 42.0869 76.0829 43.2553 72.0044C45.7135 70.9021 48.2157 69.7997 50.74 68.7856C52.7903 67.9258 54.7193 67.1433 56.5712 66.4047C58.9302 71.2328 61.1679 76.1601 63.1851 80.867C61.8513 85.651 60.6057 90.3909 59.4482 95.0206ZM67.0873 90.1925C67.1534 90.3468 67.2195 90.5122 67.2746 90.6776L66.8999 90.898C66.9329 90.6665 67.0211 90.424 67.0873 90.1925ZM57.3869 103.597C56.45 107.642 55.5902 111.533 54.7965 115.237C53.2863 112.646 51.7762 109.891 50.3211 107.069C52.7682 105.911 55.1162 104.754 57.3869 103.597ZM38.4272 97.6993C39.287 99.6173 40.246 101.701 41.2822 103.883L37.8871 105.338C38.0083 102.726 38.1847 100.191 38.4272 97.6993ZM45.9891 63.6048C47.2347 60.1876 48.5795 56.9909 49.9794 53.9596C51.0817 55.9217 52.2942 58.0823 53.5509 60.4853C51.8092 61.1798 50.0125 61.9073 48.1275 62.6899L45.9891 63.6048ZM62.7442 64.0347C65.07 63.1749 67.1534 62.4364 69.1706 61.8301C68.0903 64.9313 67.0615 68.0397 66.0842 71.1556C65.037 68.7526 63.9236 66.3826 62.7772 64.0347H62.7442ZM29.3442 38.2517C29.7933 37.4992 30.4138 36.8635 31.1551 36.3961C31.8964 35.9287 32.7375 35.643 33.6101 35.5621C34.1392 35.4629 38.0194 35.2755 46.1765 47.6875C43.0408 53.8914 40.4124 60.3389 38.317 66.9669L34.3707 68.7526C29.7741 55.6352 26.3349 43.5758 29.3442 38.2517ZM13.7134 113.628C12.534 113.925 10.3183 112.371 8.65385 109.218C6.73049 105.436 6.14013 101.116 6.97838 96.9568C7.81664 92.7975 10.0344 89.043 13.2725 86.3013C14.8709 85.4746 21.628 82.0023 30.5898 77.7584C30.9646 78.7615 31.3394 79.7867 31.6921 80.8118C32.3425 82.6086 33.0038 84.4164 33.6542 86.2242C32.4638 93.3658 31.7677 100.581 31.5709 107.818C25.7319 110.097 19.7701 112.048 13.7134 113.661V113.628ZM51.6108 130.669C50.3211 137.041 49.307 142.078 48.4472 145.495C48.2047 146.432 46.2426 148.802 44.7545 149.056C44.523 149.056 44.3576 149.133 43.9828 148.615C41.3019 144.493 39.6221 139.8 39.0776 134.913C38.1653 127.496 37.7088 120.031 37.7107 112.558C39.9153 111.666 42.12 110.74 44.2474 109.803C46.8158 114.883 49.687 119.804 52.8454 124.54C52.4045 126.723 51.9966 128.773 51.6108 130.702V130.669ZM72.8854 106.319C77.7245 125.323 74.7483 129.931 73.7121 130.879C72.6759 131.827 70.769 131.871 68.0132 130.956C65.5991 130.14 62.656 127.043 59.5585 122.666C60.9915 115.777 62.667 107.984 64.6732 99.7275C66.4369 98.7722 68.1161 97.8388 69.7107 96.9276C71.3421 101.326 72.4445 104.677 72.8854 106.352V106.319ZM82.2661 81.3851C81.5826 81.859 78.2426 84.1077 73.0287 87.2493C72.0807 84.8793 71.0555 82.3771 69.9532 79.7977C71.9264 73.0185 74.131 66.1953 76.5671 59.5373C89.4421 56.1422 91.5034 58.4349 91.6136 58.6113C98.2495 67.2534 83.655 80.2166 82.2661 81.4182V81.3851Z" fill="#754C29"/>
</svg>
