<svg width="131" height="139" viewBox="0 0 131 139" fill="none" xmlns="http://www.w3.org/2000/svg">
<path d="M129.95 105.089C129.539 103.926 127.75 100.242 122.028 101.029C121.241 101.137 120.507 101.297 119.756 101.423C120.941 99.2354 121.272 96.6866 120.686 94.2692C120.275 93.1246 118.505 89.4227 112.764 90.2275C109.994 90.5884 107.259 91.1867 104.591 92.0159C99.0652 84.8625 89.426 69.7866 91.5005 53.5305C94.3976 31.0331 103.429 8.28534 73.4561 1.0604C43.4834 -6.16453 -32.6647 24.0765 15.6744 75.0981C27.2272 87.2947 31.7696 82.2515 53.9451 88.4571C65.8095 91.8158 76.0525 99.3646 82.7733 109.703C82.0766 111.059 81.4789 112.463 80.985 113.905C80.6649 114.28 80.4054 114.702 80.216 115.157C78.7496 118.501 80.8956 121.774 84.8121 125.887C85.9261 127.073 87.4315 127.816 89.0505 127.98C89.0505 130.626 90.9819 133.345 94.0757 136.689C94.7221 137.393 95.5108 137.952 96.3895 138.328C97.2682 138.704 98.2168 138.889 99.1725 138.871C101.902 138.706 104.535 137.804 106.791 136.26C108.591 135.128 110.307 133.867 111.923 132.486C113.347 133.618 114.981 134.457 116.73 134.955C118.48 135.452 120.311 135.598 122.117 135.383C128.358 134.614 125.229 124.01 123.905 120.308C128.394 114.782 131.327 108.952 129.95 105.089ZM80.52 82.4482C79.5364 80.5168 69.5217 77.0832 62.2252 74.4544C46.291 68.8747 28.2465 62.5439 25.2063 52.4934C24.6971 50.6378 24.6594 48.6845 25.0966 46.8107C25.5339 44.9368 26.4322 43.2018 27.7101 41.7633C30.2258 38.8389 33.6195 36.8064 37.385 35.969C37.417 34.7651 37.5667 33.5671 37.8321 32.3923C39.4416 25.2389 46.7739 21.4833 56.0018 23.1107C67.483 25.1494 78.6959 34.9496 76.8897 49.1313C74.1893 70.2874 93.575 91.9086 93.7717 92.0517L90.195 95.3601C86.6253 91.2873 83.4571 86.8795 80.7346 82.1978L80.52 82.4482ZM90.5884 118.966C90.034 118.34 89.6227 117.84 89.3365 117.464C90.0877 115.103 94.5228 103.569 110.457 99.9383C108.867 102.398 107.072 104.719 105.092 106.877C100.912 109.413 97.2971 112.779 94.4692 116.767C93.2907 117.673 91.9824 118.396 90.5884 118.913V118.966ZM99.8521 129.697C99.2977 129.071 98.8864 128.57 98.6003 128.194C99.234 126.3 100.112 124.496 101.211 122.829C104.589 120.154 107.758 117.224 110.689 114.066C113.483 112.48 116.496 111.317 119.631 110.615C115.643 117.25 104.412 128.302 99.7806 129.714L99.8521 129.697Z" fill="#FFCE5B"/>
<path d="M53.8905 52.8153C56.0187 53.3518 56.4478 52.4398 56.716 51.4741C57.9858 46.9317 56.6088 43.623 52.6387 41.6558C49.5363 40.2753 46.1278 39.7269 42.749 40.0644C44.3407 46.5382 49.974 51.8317 53.8905 52.8153Z" fill="#FFCE5B"/>
<path d="M72.0063 48.559C73.4191 37.3997 64.388 29.6383 55.1422 28.0109C50.1527 27.1346 43.8577 28.0108 42.6238 33.5189C42.4994 34.049 42.4099 34.5867 42.3556 35.1285C46.6432 34.7168 50.9633 35.4511 54.874 37.2565C60.9723 40.2788 63.3865 45.948 61.5087 52.7795C61.2885 53.6963 60.8789 54.557 60.3063 55.3061C59.7337 56.0553 59.0107 56.6764 58.1837 57.1294C57.3568 57.5825 56.4442 57.8574 55.5046 57.9367C54.565 58.0161 53.6192 57.898 52.728 57.59C46.8443 56.1057 39.8876 49.2565 37.9383 40.9585C35.5021 41.5479 33.3088 42.8788 31.6612 44.7677C30.8713 45.5835 30.2949 46.5813 29.9829 47.6731C29.671 48.7649 29.6331 49.917 29.8728 51.0269C32.1619 58.6811 50.4567 65.0833 63.8515 69.7509C69.2165 71.5393 73.3655 73.1131 76.6561 74.508C72.7745 66.4424 71.1668 57.4706 72.0063 48.559Z" fill="#FFCE5B"/>
</svg>
