<svg width="162" height="164" viewBox="0 0 162 164" fill="none" xmlns="http://www.w3.org/2000/svg">
<path d="M154.026 119.364C138.925 111.807 134.621 110.711 133.489 110.938L149.722 36.2361C149.722 36.2361 63.196 12.3181 31.1451 0L22.802 18.1372C22.802 18.1372 -15.7043 98.0913 7.36172 127.715C9.38177 132.844 12.8949 137.246 17.4454 140.352C21.9959 143.458 27.3738 145.124 32.8816 145.134C40.154 145.124 47.1252 142.225 52.264 137.075C57.4028 131.924 60.2891 124.943 60.2891 117.664C60.2891 110.385 57.4028 103.404 52.264 98.2533C47.1252 93.1027 40.154 90.2039 32.8816 90.1939C29.9289 90.2006 26.9968 90.6855 24.1989 91.6298C22.6133 78.7071 33.4857 54.1464 33.4857 54.1464L114.424 72.3214C114.424 72.3214 87.9985 159.87 103.628 163.271C119.257 166.672 184.415 134.554 154.026 119.364Z" fill="#F7941D"/>
</svg>
