<svg width="123" height="148" viewBox="0 0 123 148" fill="none" xmlns="http://www.w3.org/2000/svg">
<g clip-path="url(#clip0_461_175)">
<path d="M61.7718 0.647333C61.8348 0.637877 61.8991 0.642512 61.9601 0.660957C62.021 0.679403 62.0771 0.71118 62.1243 0.753964C62.2043 0.833133 62.2521 0.939191 62.2583 1.05157C62.2692 1.16482 62.2373 1.27805 62.169 1.36904C62.1288 1.41833 62.078 1.45795 62.0205 1.485C61.9629 1.51204 61.9 1.52579 61.8364 1.52526L61.2059 1.57243C61.1243 1.56787 61.0439 1.59348 60.98 1.64437C60.9383 1.71535 60.9241 1.79922 60.9403 1.87997L61.2084 5.54816C61.2176 5.61378 61.2119 5.68062 61.1917 5.74374C61.1715 5.80685 61.1373 5.86461 61.0917 5.91273C61.0057 5.99714 60.8919 6.04735 60.7715 6.05406C60.6496 6.06594 60.5277 6.03241 60.429 5.95984C60.3782 5.91854 60.3372 5.86632 60.3093 5.80707C60.2814 5.74782 60.2672 5.68304 60.2677 5.61755L59.9996 1.94942C60.0023 1.867 59.9759 1.78621 59.9252 1.72121C59.8504 1.67726 59.7617 1.66311 59.6769 1.68155L59.049 1.72865C58.9858 1.73796 58.9213 1.73301 58.8603 1.71412C58.7993 1.69524 58.7434 1.66291 58.6965 1.61954C58.6161 1.54035 58.5676 1.43448 58.56 1.32193C58.5512 1.20927 58.5838 1.09725 58.6518 1.00695C58.6921 0.957608 58.7428 0.917768 58.8004 0.890325C58.8579 0.862881 58.9207 0.848481 58.9844 0.848181L61.7718 0.647333Z" fill="#D0AD67"/>
<path d="M66.0188 1.80058C66.2293 1.804 66.4372 1.84691 66.6319 1.92707C66.8203 2.00591 66.9897 2.1243 67.1283 2.27427C67.2776 2.43735 67.391 2.63003 67.4609 2.83976C67.5449 3.09301 67.5819 3.35949 67.5701 3.62601L67.5353 5.48614C67.5387 5.55115 67.5283 5.61612 67.5048 5.67682C67.4813 5.73752 67.4452 5.79255 67.3988 5.83831C67.3064 5.91471 67.1886 5.95364 67.0687 5.94742C66.9514 5.94931 66.8381 5.90473 66.7535 5.82341C66.7083 5.77686 66.6737 5.72099 66.6523 5.65974C66.6308 5.59849 66.623 5.53334 66.6294 5.46876L66.6641 3.6905C66.6701 3.54549 66.6482 3.40063 66.5996 3.26386C66.5586 3.14852 66.4954 3.04234 66.4134 2.95135C66.3351 2.86838 66.2405 2.80257 66.1355 2.75795C66.0273 2.71107 65.9108 2.68659 65.7929 2.68602C65.6762 2.68316 65.5599 2.70251 65.4504 2.74306C65.3438 2.78539 65.2467 2.84864 65.165 2.92907C65.0796 3.01597 65.0121 3.11877 64.9664 3.23164C64.9128 3.36666 64.885 3.5105 64.8845 3.65574L64.8497 5.43401C64.8536 5.49885 64.8437 5.56379 64.8206 5.6245C64.7975 5.68521 64.7617 5.74036 64.7157 5.78623C64.6257 5.86219 64.5107 5.90197 64.393 5.89783C64.2732 5.89706 64.1577 5.85301 64.0679 5.77382C64.0237 5.72613 63.99 5.66968 63.9691 5.60815C63.9481 5.54663 63.9403 5.48141 63.9463 5.41669L64.0431 0.456346C64.039 0.391492 64.0489 0.326529 64.072 0.265792C64.0951 0.205055 64.1309 0.149905 64.1771 0.104121C64.2688 0.0261654 64.3869 -0.0137544 64.5072 -0.00747497C64.6251 -0.00817823 64.7387 0.0361889 64.8249 0.116534C64.8692 0.164139 64.903 0.220592 64.9239 0.282141C64.9449 0.34369 64.9526 0.408931 64.9465 0.473664L64.9118 2.31896C65.0523 2.15105 65.2276 2.01563 65.4256 1.92211C65.611 1.83561 65.8142 1.79398 66.0188 1.80058Z" fill="#D0AD67"/>
<path d="M72.1492 5.25296C72.2488 5.18536 72.3697 5.15631 72.4892 5.17115C72.6054 5.18562 72.7122 5.24206 72.7896 5.32986C72.8308 5.37678 72.8611 5.43227 72.8783 5.49232C72.8955 5.55237 72.8991 5.61551 72.8888 5.67712C72.8798 5.74096 72.8575 5.80215 72.8233 5.85683C72.789 5.91151 72.7437 5.95842 72.6903 5.99453C72.5593 6.09233 72.4111 6.16471 72.2534 6.20785C72.0646 6.26061 71.8708 6.29383 71.6751 6.30703C71.4663 6.32694 71.256 6.32694 71.0471 6.30703C70.7364 6.2776 70.4358 6.18116 70.166 6.02432C69.9326 5.88661 69.7298 5.70262 69.5703 5.48366C69.4202 5.2723 69.3146 5.03264 69.26 4.77927C69.2035 4.52705 69.1901 4.26708 69.2203 4.01039C69.2496 3.69631 69.3452 3.39204 69.5008 3.11756C69.6357 2.88793 69.8175 2.6893 70.0344 2.5347C70.2404 2.38992 70.4734 2.28788 70.7195 2.23461C70.9642 2.18284 71.2157 2.17114 71.4641 2.19991C71.6844 2.22642 71.8994 2.28577 72.102 2.37599C72.2959 2.45958 72.4733 2.57716 72.6257 2.72319C72.7708 2.86338 72.885 3.03234 72.9608 3.21923C73.0393 3.42369 73.0649 3.64464 73.0353 3.86162C73.027 4.05721 72.9434 4.242 72.802 4.37745C72.6461 4.49866 72.4613 4.57734 72.2658 4.60567L70.449 4.95038C70.4217 4.95038 70.4068 4.97026 70.4018 4.99011C70.3976 4.9986 70.3955 5.0079 70.3955 5.01735C70.3955 5.02681 70.3976 5.03617 70.4018 5.04466C70.4901 5.14559 70.5961 5.22963 70.7145 5.29268C70.8495 5.36111 70.9959 5.404 71.1464 5.41917C71.2365 5.4255 71.3269 5.4255 71.417 5.41917C71.5113 5.41917 71.6056 5.40675 71.6999 5.39435C71.7842 5.3827 71.8673 5.36361 71.9481 5.33731C72.0181 5.31683 72.0856 5.28852 72.1492 5.25296ZM70.1387 4.12943C70.1387 4.16912 70.1511 4.18653 70.1859 4.18157L72.0276 3.83182C72.0502 3.73413 72.048 3.63234 72.0211 3.53573C71.9942 3.43912 71.9435 3.35076 71.8737 3.27875C71.7345 3.1388 71.5513 3.05118 71.3549 3.03073C71.2235 3.01635 71.0905 3.02647 70.9627 3.06052C70.8246 3.09548 70.6953 3.15883 70.583 3.24654C70.4621 3.34151 70.3624 3.46059 70.2901 3.59622C70.2049 3.76193 70.155 3.94348 70.1437 4.12943H70.1387Z" fill="#D0AD67"/>
<path d="M81.9663 3.12256C82.083 3.15341 82.1845 3.22567 82.2517 3.32589C82.2865 3.38164 82.3081 3.44455 82.315 3.50985C82.3218 3.57515 82.3138 3.64114 82.2914 3.70289L81.0852 7.98118C81.0724 8.04589 81.0449 8.10681 81.0049 8.15926C80.9649 8.21172 80.9134 8.2543 80.8543 8.28376C80.7443 8.33349 80.6198 8.34145 80.5043 8.3061C80.3858 8.27635 80.2824 8.20392 80.2139 8.10271C80.1799 8.04664 80.159 7.98359 80.153 7.91827C80.147 7.85295 80.1559 7.78706 80.1792 7.72572L80.6111 6.19795C80.6431 6.11838 80.6431 6.02951 80.6111 5.94994C80.5863 5.90281 80.5168 5.86562 80.4051 5.83338L78.9555 5.42417C78.8756 5.3934 78.7872 5.3934 78.7073 5.42417C78.6441 5.47726 78.6018 5.55108 78.5882 5.63247L78.1563 7.16029C78.1429 7.22444 78.1155 7.28479 78.076 7.3371C78.0366 7.38942 77.986 7.43239 77.9279 7.46287C77.8164 7.51385 77.69 7.52176 77.573 7.48515C77.4563 7.4543 77.3548 7.38204 77.2876 7.28182C77.2527 7.22615 77.2309 7.1632 77.2241 7.09786C77.2172 7.03253 77.2253 6.96654 77.2478 6.90483L78.4591 2.62653C78.4724 2.56202 78.5001 2.50131 78.54 2.44893C78.58 2.39656 78.6312 2.35386 78.6899 2.32396C78.8 2.27422 78.9244 2.26626 79.0399 2.30161C79.1591 2.33002 79.2629 2.40277 79.3303 2.505C79.3642 2.56158 79.3851 2.62492 79.3915 2.69053C79.398 2.75614 79.3898 2.8224 79.3676 2.88448L78.9878 4.22126C78.9552 4.30074 78.9552 4.38981 78.9878 4.46928C79.0393 4.53318 79.1127 4.57562 79.1938 4.58832L80.6433 4.99753C80.7229 5.03006 80.812 5.03006 80.8915 4.99753C80.9555 4.9461 80.998 4.87275 81.0107 4.79172L81.388 3.45239C81.4013 3.38824 81.4287 3.32789 81.4682 3.27558C81.5077 3.22326 81.5583 3.18028 81.6163 3.14981C81.7258 3.09843 81.8502 3.08876 81.9663 3.12256Z" fill="#D0AD67"/>
<path d="M86.95 6.30206C87.0584 6.34454 87.1469 6.42596 87.1982 6.53028C87.2251 6.58949 87.239 6.65376 87.239 6.71878C87.239 6.78379 87.2251 6.84806 87.1982 6.90727L86.5082 8.64339C86.4148 8.89567 86.2693 9.12549 86.0813 9.31799C85.917 9.48078 85.7198 9.60675 85.503 9.68753C85.2927 9.76478 85.0691 9.79933 84.8452 9.7892C84.6161 9.7796 84.3903 9.731 84.1775 9.64539C83.9637 9.56244 83.7662 9.44233 83.5942 9.29068C83.4248 9.14432 83.2864 8.96557 83.1872 8.76492C83.0839 8.55737 83.0279 8.32946 83.0234 8.09771C83.0177 7.82949 83.0693 7.56318 83.1748 7.31648L83.8648 5.58035C83.8841 5.51883 83.9162 5.46207 83.959 5.41378C84.0018 5.36549 84.0543 5.32679 84.113 5.30012C84.2246 5.25568 84.3489 5.25568 84.4605 5.30012C84.5687 5.34281 84.6571 5.42411 84.7087 5.52828C84.735 5.58766 84.7485 5.65186 84.7485 5.71678C84.7485 5.78169 84.735 5.8459 84.7087 5.90527L84.0485 7.55704C83.9922 7.69064 83.9618 7.83372 83.9591 7.97866C83.9556 8.1009 83.9776 8.22257 84.0237 8.33585C84.0677 8.44127 84.1327 8.53661 84.2148 8.61608C84.3002 8.69664 84.4005 8.75981 84.5101 8.8021C84.6182 8.84596 84.7336 8.8687 84.8502 8.86907C84.9649 8.86892 85.0783 8.84439 85.1828 8.79713C85.2941 8.74573 85.3944 8.67334 85.4782 8.58387C85.5751 8.4757 85.6508 8.35036 85.7015 8.21433L86.3618 6.56249C86.3807 6.50076 86.4126 6.44384 86.4555 6.39549C86.4983 6.34715 86.551 6.30852 86.61 6.28226C86.7216 6.24402 86.8437 6.2511 86.95 6.30206Z" fill="#D0AD67"/>
<path d="M90.9585 8.21435C91.1936 8.33501 91.406 8.49524 91.5865 8.68804C91.7534 8.8664 91.8795 9.07878 91.9563 9.31056C92.0337 9.5505 92.0583 9.80431 92.0283 10.0546C91.9917 10.3416 91.9016 10.6192 91.7627 10.8731L90.6061 13.0903C90.4854 13.3348 90.3095 13.548 90.0923 13.7129C89.8995 13.8547 89.6773 13.9513 89.442 13.9956C89.2035 14.0425 88.9582 14.0425 88.7197 13.9956C88.46 13.9433 88.2092 13.854 87.9751 13.7302C87.791 13.6343 87.6179 13.5186 87.4588 13.3855C87.3123 13.2614 87.1807 13.1207 87.0666 12.9663C86.9647 12.8245 86.8813 12.6703 86.8184 12.5075C86.7602 12.3593 86.7266 12.2027 86.7191 12.0437C86.7104 11.945 86.7329 11.8461 86.7837 11.7609C86.8282 11.6885 86.8906 11.6287 86.9649 11.5873C87.0353 11.55 87.1135 11.5296 87.1932 11.5278C87.2705 11.5239 87.3475 11.5402 87.4166 11.5749C87.5213 11.6251 87.6023 11.7141 87.6425 11.8229L87.7691 12.1851C87.8174 12.3234 87.8815 12.4557 87.9602 12.5794C88.0699 12.7384 88.2209 12.8644 88.397 12.944C88.6481 13.0953 88.9423 13.159 89.2335 13.125C89.3614 13.0998 89.4813 13.044 89.5828 12.9624C89.6844 12.8808 89.7647 12.7757 89.8168 12.6563L90.1717 11.9767C89.9857 12.0391 89.7886 12.0611 89.5934 12.0412C89.3793 12.0199 89.1716 11.9558 88.9828 11.8527C88.6195 11.6801 88.3161 11.4028 88.1116 11.0566C87.9413 10.7542 87.8556 10.4115 87.8634 10.0645C87.8718 9.71778 87.9619 9.37788 88.1265 9.07248C88.2871 8.76547 88.5185 8.50105 88.8016 8.30112C89.0915 8.0995 89.4299 7.9788 89.782 7.95143C90.1914 7.923 90.6003 8.01437 90.9585 8.21435ZM89.4122 11.0616C89.5347 11.1249 89.6675 11.1661 89.8044 11.1831C89.9426 11.2013 90.0832 11.1894 90.2164 11.1483C90.3579 11.1044 90.4889 11.0318 90.6011 10.9351C90.733 10.8209 90.8409 10.6818 90.9188 10.5258C91.0032 10.3722 91.0572 10.2038 91.0777 10.0298C91.0917 9.88178 91.0757 9.73246 91.0305 9.59079C90.9887 9.45818 90.9184 9.3363 90.8245 9.23366C90.7309 9.1332 90.621 9.04934 90.4994 8.98565C90.3048 8.87595 90.0814 8.82834 89.859 8.84922C89.6659 8.8723 89.482 8.94495 89.3253 9.06006C89.1682 9.17758 89.04 9.32944 88.9505 9.50402C88.8585 9.67698 88.8076 9.86877 88.8016 10.0645C88.7954 10.2589 88.8408 10.4514 88.9332 10.6226C89.0447 10.814 89.2117 10.9671 89.4122 11.0616Z" fill="#D0AD67"/>
<path d="M94.5133 11.5526C94.4808 11.5986 94.4605 11.652 94.454 11.7079C94.4475 11.7638 94.455 11.8204 94.476 11.8726C94.5255 11.9986 94.5924 12.1171 94.6746 12.2248C94.7664 12.3463 94.8682 12.4728 94.9799 12.6142C95.0889 12.7498 95.1799 12.899 95.2504 13.0581C95.318 13.2148 95.3534 13.3835 95.3547 13.5541C95.3462 13.7566 95.2789 13.9522 95.1611 14.1171C95.0647 14.2774 94.9299 14.4112 94.7689 14.5065C94.6257 14.5899 94.4652 14.6391 94.2998 14.6504C94.132 14.6619 93.9636 14.6417 93.8034 14.5909C93.6281 14.5392 93.461 14.4632 93.307 14.3651C93.1778 14.2795 93.058 14.1806 92.9495 14.07C92.8418 13.9613 92.7468 13.8407 92.6666 13.7104C92.5892 13.5887 92.5314 13.4556 92.4953 13.316C92.4609 13.1825 92.4508 13.0439 92.4655 12.9068C92.4738 12.8225 92.5047 12.742 92.5549 12.6737C92.5961 12.6146 92.6516 12.5668 92.7162 12.5348C92.7789 12.5022 92.8493 12.4876 92.9198 12.4926C92.9926 12.4971 93.0629 12.5211 93.1233 12.562C93.1868 12.6063 93.2374 12.6666 93.2701 12.7367C93.3028 12.8068 93.3164 12.8843 93.3094 12.9614C93.3071 13.1051 93.3506 13.2458 93.4335 13.3632C93.5143 13.4906 93.6219 13.5989 93.7488 13.6806C93.852 13.7507 93.9718 13.7926 94.0963 13.8021C94.1496 13.8068 94.2032 13.7965 94.251 13.7724C94.2987 13.7483 94.3389 13.7114 94.3668 13.6658C94.3982 13.6206 94.4175 13.5681 94.4227 13.5134C94.4279 13.4587 94.4189 13.4035 94.3966 13.3532C94.344 13.2284 94.2782 13.1095 94.2005 12.9985C94.1112 12.8745 94.0119 12.7506 93.9027 12.5993C93.7941 12.4624 93.7032 12.3124 93.6321 12.1528C93.5644 11.9962 93.5298 11.8274 93.5304 11.6568C93.5396 11.4556 93.6058 11.2612 93.7215 11.0963C93.8155 10.944 93.9471 10.8185 94.1037 10.7317C94.2469 10.6548 94.4055 10.6107 94.5679 10.6027C94.7359 10.5938 94.9041 10.6157 95.0643 10.6672C95.231 10.7226 95.3903 10.7984 95.5384 10.8929C95.7554 11.0317 95.942 11.2132 96.0869 11.4261C96.2243 11.6134 96.2942 11.8415 96.2855 12.0734C96.2856 12.1613 96.2606 12.2473 96.2135 12.3215C96.1725 12.3833 96.1148 12.4323 96.0472 12.4628C95.979 12.4912 95.9048 12.5023 95.8312 12.4951C95.7512 12.4863 95.6746 12.4582 95.6079 12.4133C95.4973 12.3348 95.4181 12.2196 95.3845 12.0883C95.3432 11.9692 95.2838 11.857 95.2082 11.756C95.1409 11.6592 95.0569 11.5752 94.96 11.508C94.8875 11.4559 94.8011 11.4266 94.7118 11.4237C94.67 11.4244 94.6291 11.4369 94.594 11.4597C94.5589 11.4825 94.5309 11.5147 94.5133 11.5526Z" fill="#D0AD67"/>
<path d="M102.198 15.9227C102.397 16.0964 102.564 16.3027 102.694 16.5328C102.813 16.7458 102.885 16.9817 102.905 17.2248C102.926 17.4777 102.889 17.732 102.798 17.9688C102.695 18.2388 102.542 18.487 102.347 18.7005L101.237 19.9604C101.198 20.0124 101.149 20.0555 101.092 20.0867C101.035 20.118 100.972 20.1366 100.907 20.1415C100.789 20.1428 100.676 20.0994 100.589 20.0199C100.496 19.9432 100.436 19.8342 100.42 19.7149C100.417 19.6503 100.428 19.5857 100.451 19.5255C100.475 19.4652 100.511 19.4106 100.557 19.3652L101.612 18.1648C101.73 18.0372 101.821 17.887 101.88 17.7233C101.93 17.5842 101.951 17.4368 101.944 17.2893C101.936 17.151 101.897 17.0164 101.83 16.895C101.767 16.7745 101.683 16.6662 101.582 16.575C101.477 16.4825 101.357 16.4087 101.227 16.3567C101.097 16.3067 100.957 16.2847 100.818 16.2922C100.669 16.3021 100.524 16.3417 100.391 16.4088C100.234 16.4902 100.095 16.6014 99.9811 16.7362C99.7774 16.9471 99.6643 17.2293 99.6659 17.5224C99.6754 17.6704 99.7164 17.8146 99.7861 17.9455C99.8559 18.0764 99.9528 18.1909 100.07 18.2813L100.334 18.512C100.383 18.5494 100.422 18.5978 100.449 18.6534C100.476 18.7091 100.489 18.7702 100.487 18.8319C100.481 18.9439 100.438 19.0506 100.363 19.1345C100.289 19.219 100.189 19.2759 100.078 19.2957C100.017 19.3034 99.9556 19.2968 99.8979 19.2766C99.8401 19.2564 99.7879 19.223 99.7453 19.1792L99.4822 18.9485C99.2643 18.7635 99.0847 18.5377 98.9535 18.2838C98.8357 18.0525 98.768 17.799 98.7549 17.5398C98.7406 17.2869 98.7778 17.0338 98.8642 16.7957C98.9575 16.5418 99.0981 16.3078 99.2787 16.1062C99.4837 15.8655 99.7375 15.6712 100.023 15.5358C100.264 15.4207 100.526 15.3589 100.793 15.3547C101.048 15.3568 101.301 15.4082 101.537 15.506C101.778 15.6089 102.001 15.7495 102.198 15.9227Z" fill="#D0AD67"/>
<path d="M106.278 19.8885C106.434 20.0588 106.56 20.2542 106.65 20.4664C106.74 20.6715 106.788 20.8924 106.792 21.1162C106.796 21.3475 106.749 21.5769 106.655 21.7883C106.546 22.0336 106.385 22.2526 106.184 22.4307L104.821 23.7005C104.777 23.7482 104.723 23.786 104.663 23.8112C104.603 23.8365 104.539 23.8486 104.474 23.8468C104.356 23.8354 104.247 23.7795 104.168 23.6906C104.086 23.606 104.039 23.4935 104.037 23.3756C104.04 23.3109 104.057 23.2477 104.087 23.19C104.116 23.1323 104.158 23.0814 104.208 23.0408L105.511 21.828C105.62 21.7318 105.709 21.6157 105.774 21.4858C105.828 21.3756 105.859 21.2558 105.866 21.1335C105.871 21.0196 105.854 20.9057 105.814 20.7987C105.771 20.6902 105.708 20.5908 105.628 20.506C105.549 20.4191 105.453 20.3484 105.347 20.2977C105.244 20.2507 105.131 20.2253 105.017 20.2233C104.895 20.2219 104.773 20.2446 104.66 20.2903C104.524 20.3481 104.401 20.4324 104.297 20.5383L102.994 21.7486C102.951 21.7963 102.897 21.834 102.838 21.8592C102.778 21.8845 102.714 21.8967 102.649 21.895C102.531 21.8854 102.422 21.8302 102.344 21.7412C102.26 21.6567 102.211 21.5431 102.208 21.4238C102.211 21.3588 102.228 21.2952 102.258 21.2371C102.287 21.1791 102.328 21.1278 102.379 21.0864L103.741 19.819C103.934 19.6319 104.164 19.4874 104.417 19.3949C104.634 19.3148 104.866 19.2844 105.097 19.3057C105.321 19.3249 105.538 19.389 105.737 19.4942C105.938 19.5947 106.121 19.728 106.278 19.8885Z" fill="#D0AD67"/>
<path d="M112.285 24.3876C112.358 24.4792 112.394 24.5955 112.384 24.7125C112.375 24.7768 112.352 24.8384 112.317 24.8932C112.282 24.9479 112.235 24.9945 112.181 25.0299L109.43 27.1182C109.203 27.2963 108.945 27.4308 108.668 27.515C108.427 27.5865 108.173 27.6051 107.924 27.5696C107.684 27.5353 107.454 27.4508 107.249 27.3216C107.027 27.1762 106.833 26.9932 106.675 26.7809C106.515 26.5706 106.391 26.3351 106.308 26.084C106.224 25.8385 106.191 25.5787 106.211 25.3201C106.234 25.0581 106.313 24.8042 106.444 24.5761C106.602 24.306 106.814 24.072 107.067 23.889C107.281 23.7234 107.525 23.6005 107.785 23.527C108.026 23.4561 108.28 23.4358 108.529 23.4674C108.783 23.5003 109.027 23.5847 109.247 23.7154C109.491 23.8637 109.705 24.0583 109.875 24.2883L110.086 24.5686C110.126 24.6142 110.156 24.6686 110.172 24.7276C110.188 24.7866 110.19 24.8485 110.177 24.9084C110.151 25.0172 110.087 25.1131 109.996 25.1787C109.908 25.2495 109.797 25.2864 109.684 25.2829C109.622 25.28 109.563 25.2625 109.51 25.2318C109.456 25.2012 109.411 25.1583 109.378 25.1068L109.167 24.8266C109.084 24.7031 108.976 24.5986 108.85 24.5199C108.724 24.4413 108.582 24.3902 108.435 24.3702C108.145 24.3457 107.857 24.4346 107.631 24.6182C107.487 24.7211 107.366 24.8519 107.273 25.0026C107.197 25.1305 107.148 25.2721 107.127 25.4193C107.109 25.5576 107.122 25.6981 107.164 25.831C107.205 25.9651 107.269 26.091 107.353 26.203C107.436 26.3122 107.539 26.4055 107.656 26.4783C107.772 26.5544 107.903 26.6036 108.04 26.6222C108.188 26.6394 108.337 26.6285 108.48 26.5899C108.65 26.5377 108.808 26.4535 108.946 26.3419L111.622 24.3107C111.671 24.2675 111.728 24.2353 111.79 24.216C111.852 24.1968 111.917 24.191 111.982 24.1991C112.104 24.2204 112.212 24.2879 112.285 24.3876Z" fill="#D0AD67"/>
<path d="M113.499 34.8291C113.534 34.8828 113.559 34.9435 113.569 35.0072C113.58 35.0709 113.577 35.1361 113.561 35.1986C113.542 35.2653 113.508 35.3267 113.461 35.3776C113.414 35.4284 113.355 35.4674 113.29 35.4912C113.171 35.535 113.042 35.5402 112.92 35.5061C112.744 35.4652 112.576 35.3948 112.424 35.2978C112.23 35.1782 112.052 35.0358 111.893 34.8737C111.707 34.6844 111.551 34.4688 111.428 34.2338C111.255 33.9151 111.15 33.5636 111.121 33.202C111.093 32.861 111.134 32.5179 111.24 32.1926C111.347 31.8685 111.516 31.568 111.736 31.3072C111.969 31.033 112.253 30.8065 112.573 30.64C112.888 30.4703 113.232 30.3633 113.588 30.3251C113.928 30.287 114.271 30.3148 114.601 30.4069C114.93 30.5011 115.237 30.6605 115.504 30.8756C115.787 31.1032 116.019 31.387 116.187 31.709C116.314 31.9419 116.405 32.1928 116.457 32.453C116.503 32.6757 116.52 32.9032 116.509 33.1301C116.505 33.3108 116.469 33.4894 116.405 33.6584C116.364 33.7782 116.287 33.8822 116.184 33.956C116.128 33.996 116.062 34.0222 115.994 34.0326C115.925 34.0429 115.855 34.0371 115.79 34.0155C115.73 33.9953 115.675 33.9628 115.628 33.9201C115.581 33.8774 115.544 33.8254 115.519 33.7675C115.474 33.6681 115.459 33.558 115.474 33.4501C115.489 33.331 115.504 33.2021 115.519 33.0632C115.533 32.9163 115.533 32.7685 115.519 32.6217C115.506 32.4544 115.457 32.2919 115.375 32.1455C115.234 31.8528 115.002 31.6129 114.715 31.461C114.455 31.3277 114.165 31.2644 113.873 31.2774C113.577 31.2944 113.288 31.3792 113.029 31.5254C112.767 31.6632 112.538 31.8561 112.357 32.0909C112.18 32.323 112.069 32.5978 112.034 32.8871C112 33.2103 112.069 33.536 112.233 33.8171C112.308 33.9664 112.414 34.0982 112.543 34.204C112.66 34.2962 112.783 34.3791 112.913 34.4521L113.258 34.6356C113.354 34.677 113.437 34.7439 113.499 34.8291Z" fill="#D0AD67"/>
<path d="M117.929 38.6461C117.975 38.7573 117.975 38.882 117.929 38.9933C117.903 39.0522 117.865 39.1048 117.817 39.1476C117.769 39.1904 117.713 39.2224 117.651 39.2413L115.914 39.9382C115.667 40.0431 115.4 40.0955 115.132 40.092C114.9 40.0859 114.673 40.0309 114.464 39.9308C114.263 39.8311 114.083 39.6929 113.936 39.524C113.784 39.3526 113.663 39.1563 113.578 38.9437C113.493 38.731 113.444 38.5054 113.434 38.2765C113.423 38.0522 113.457 37.8279 113.533 37.6168C113.613 37.3996 113.739 37.2024 113.903 37.0389C114.093 36.8497 114.322 36.7034 114.573 36.6098L116.311 35.9154C116.37 35.8879 116.434 35.8737 116.498 35.8737C116.563 35.8737 116.627 35.8879 116.686 35.9154C116.792 35.9653 116.876 36.054 116.919 36.1634C116.962 36.2725 116.962 36.394 116.919 36.5032C116.892 36.5618 116.853 36.6142 116.805 36.6569C116.757 36.6996 116.7 36.7317 116.639 36.7512L114.988 37.4134C114.851 37.4651 114.726 37.5426 114.618 37.6416C114.528 37.7239 114.456 37.8234 114.405 37.9342C114.358 38.0389 114.335 38.1522 114.335 38.2666C114.335 38.384 114.357 38.5003 114.402 38.6088C114.444 38.7176 114.508 38.817 114.588 38.9015C114.668 38.9836 114.765 39.0479 114.871 39.09C114.985 39.1359 115.106 39.1587 115.229 39.157C115.374 39.1521 115.517 39.121 115.651 39.0652L117.301 38.4005C117.361 38.3737 117.425 38.3598 117.49 38.3598C117.555 38.3598 117.619 38.3737 117.679 38.4005C117.791 38.446 117.882 38.5343 117.929 38.6461Z" fill="#D0AD67"/>
<path d="M121.412 43.7577C121.448 43.8699 121.439 43.9917 121.387 44.0975C121.356 44.1542 121.312 44.2034 121.26 44.2415C121.208 44.2797 121.148 44.3059 121.084 44.3182L117.765 45.2681C117.49 45.3542 117.2 45.387 116.912 45.3648C116.663 45.3442 116.422 45.2715 116.204 45.1515C115.993 45.0256 115.81 44.8566 115.668 44.6555C115.514 44.4407 115.399 44.2006 115.328 43.9462C115.254 43.6918 115.223 43.427 115.236 43.1624C115.248 42.9048 115.31 42.6519 115.42 42.4184C115.538 42.1777 115.707 41.966 115.916 41.7983C116.16 41.603 116.443 41.461 116.745 41.3817C117.004 41.3037 117.275 41.276 117.545 41.2998C117.797 41.322 118.042 41.3954 118.264 41.5156C118.489 41.6397 118.686 41.8086 118.843 42.0116C119.017 42.2381 119.146 42.4969 119.22 42.773L119.317 43.1104C119.339 43.1674 119.347 43.2289 119.341 43.2898C119.334 43.3506 119.313 43.409 119.279 43.4601C119.216 43.5518 119.122 43.6185 119.014 43.6485C118.906 43.6815 118.79 43.6753 118.686 43.6312C118.629 43.6069 118.579 43.5692 118.54 43.5212C118.502 43.4732 118.475 43.4165 118.463 43.3559L118.366 43.0211C118.335 42.8759 118.272 42.7392 118.183 42.6202C118.094 42.5013 117.98 42.4028 117.85 42.3316C117.585 42.2058 117.281 42.188 117.003 42.282C116.833 42.3278 116.673 42.4061 116.532 42.5126C116.415 42.6038 116.318 42.7177 116.246 42.8475C116.18 42.9697 116.141 43.1052 116.132 43.2443C116.122 43.3847 116.137 43.5258 116.177 43.661C116.214 43.7933 116.276 43.9177 116.358 44.028C116.439 44.14 116.544 44.2324 116.666 44.2984C116.796 44.368 116.938 44.411 117.085 44.4248C117.262 44.4409 117.44 44.4223 117.609 44.3703L120.836 43.4377C120.896 43.4149 120.961 43.4053 121.026 43.4096C121.09 43.4139 121.153 43.4319 121.211 43.4625C121.262 43.4961 121.306 43.5395 121.34 43.5901C121.375 43.6408 121.399 43.6977 121.412 43.7577Z" fill="#D0AD67"/>
<path d="M122.64 49.7076C122.664 49.8227 122.643 49.9428 122.58 50.0424C122.543 50.096 122.494 50.1408 122.437 50.1737C122.381 50.2067 122.318 50.2271 122.253 50.2334L118.855 50.8386C118.571 50.893 118.28 50.893 117.996 50.8386C117.75 50.7933 117.517 50.6951 117.313 50.5509C117.116 50.4078 116.952 50.2243 116.832 50.0127C116.701 49.7818 116.611 49.5301 116.566 49.2686C116.523 49.0067 116.523 48.7394 116.566 48.4774C116.605 48.2219 116.695 47.9766 116.829 47.7557C116.968 47.5279 117.156 47.3346 117.38 47.1902C117.644 47.0206 117.94 46.9083 118.249 46.8604C118.515 46.8095 118.788 46.8095 119.053 46.8604C119.301 46.9084 119.537 47.0063 119.746 47.1481C119.956 47.2942 120.134 47.4815 120.27 47.6987C120.418 47.9437 120.518 48.2147 120.565 48.4973L120.627 48.8396C120.643 48.8986 120.645 48.9606 120.633 49.0206C120.62 49.0805 120.593 49.1366 120.555 49.1843C120.481 49.2688 120.38 49.3256 120.27 49.3455C120.158 49.3656 120.044 49.3472 119.944 49.2934C119.891 49.2627 119.845 49.2197 119.812 49.1679C119.778 49.1162 119.757 49.0572 119.751 48.9958L119.689 48.6535C119.673 48.5054 119.625 48.3623 119.55 48.234C119.474 48.1057 119.372 47.995 119.249 47.9095C118.999 47.758 118.699 47.7091 118.413 47.7731C118.237 47.8005 118.069 47.862 117.917 47.9541C117.79 48.0334 117.682 48.1371 117.596 48.2592C117.518 48.3737 117.465 48.5041 117.442 48.6411C117.418 48.7789 117.418 48.92 117.442 49.0578C117.467 49.1931 117.515 49.3232 117.584 49.4422C117.654 49.5614 117.749 49.6645 117.862 49.7448C117.985 49.8274 118.124 49.8855 118.269 49.9159C118.442 49.9495 118.62 49.9495 118.793 49.9159L122.101 49.3257C122.164 49.3091 122.23 49.3063 122.295 49.3174C122.359 49.3285 122.42 49.3533 122.474 49.3902C122.568 49.4705 122.628 49.5843 122.64 49.7076Z" fill="#D0AD67"/>
<path d="M122.997 52.7086C123.013 52.8253 122.982 52.9434 122.913 53.0385C122.871 53.0884 122.819 53.1288 122.761 53.1571C122.702 53.1853 122.638 53.2007 122.573 53.2022L117.639 53.6982C117.575 53.71 117.509 53.7079 117.446 53.6921C117.383 53.6763 117.324 53.647 117.274 53.6064C117.186 53.5268 117.133 53.4167 117.125 53.2989C117.109 53.1798 117.139 53.0592 117.209 52.9616C117.251 52.9123 117.303 52.8723 117.362 52.8441C117.421 52.8159 117.484 52.8002 117.549 52.7979L122.484 52.3019C122.548 52.2911 122.613 52.2939 122.676 52.3101C122.739 52.3264 122.798 52.3557 122.848 52.3961C122.937 52.4767 122.991 52.589 122.997 52.7086Z" fill="#D0AD67"/>
<path d="M118.564 58.3039C118.646 58.3914 118.692 58.5065 118.693 58.6263C118.697 58.7424 118.658 58.8558 118.582 58.9438C118.541 58.992 118.49 59.0306 118.432 59.0568C118.375 59.0829 118.312 59.096 118.249 59.0951C118.185 59.0947 118.121 59.0811 118.062 59.055C118.003 59.029 117.95 58.9911 117.907 58.9438C117.792 58.8268 117.699 58.6898 117.634 58.5395C117.555 58.3598 117.494 58.1729 117.452 57.9815C117.407 57.7777 117.381 57.5701 117.375 57.3614C117.361 57.0495 117.414 56.7381 117.532 56.4487C117.634 56.1977 117.787 55.9706 117.981 55.7815C118.168 55.6028 118.391 55.4643 118.634 55.3748C118.872 55.2826 119.123 55.2322 119.378 55.226C119.694 55.2089 120.01 55.2605 120.304 55.3773C120.551 55.4768 120.775 55.6272 120.96 55.8188C121.133 56.0021 121.266 56.2191 121.352 56.4561C121.437 56.6876 121.485 56.9313 121.493 57.1779C121.498 57.399 121.471 57.6197 121.411 57.8327C121.355 58.037 121.263 58.2299 121.141 58.4031C121.021 58.5683 120.867 58.7061 120.689 58.8073C120.497 58.9126 120.282 58.9688 120.063 58.971C119.868 58.989 119.674 58.9332 119.517 58.8148C119.377 58.6771 119.274 58.5066 119.217 58.3188L118.616 56.5826C118.616 56.5578 118.589 56.5429 118.569 56.5429C118.56 56.542 118.55 56.5433 118.541 56.5467C118.532 56.5501 118.524 56.5557 118.517 56.5628C118.431 56.6642 118.364 56.7801 118.319 56.9051C118.27 57.0488 118.249 57.2 118.254 57.3515C118.257 57.4422 118.267 57.5326 118.284 57.6218C118.304 57.7136 118.324 57.8054 118.348 57.8971C118.372 57.9827 118.403 58.0657 118.443 58.1452C118.478 58.202 118.519 58.2552 118.564 58.3039ZM119.391 56.1536C119.351 56.1536 119.336 56.1709 119.346 56.2081L119.957 57.979C120.057 57.9866 120.157 57.9696 120.249 57.9294C120.34 57.8891 120.421 57.8269 120.483 57.7483C120.6 57.5903 120.659 57.3966 120.649 57.2002C120.646 57.0671 120.617 56.9358 120.565 56.8133C120.507 56.6819 120.422 56.5638 120.317 56.4661C120.206 56.3571 120.073 56.2726 119.927 56.2181C119.755 56.1594 119.572 56.1374 119.391 56.1536Z" fill="#D0AD67"/>
<path d="M120.317 61.7191C120.26 61.7138 120.204 61.7226 120.152 61.7447C120.1 61.7668 120.054 61.8014 120.019 61.8456C119.934 61.9503 119.864 62.0663 119.81 62.1903C119.748 62.3267 119.684 62.4805 119.619 62.6467C119.556 62.8069 119.472 62.9586 119.371 63.0981C119.267 63.2342 119.136 63.3474 118.986 63.4304C118.806 63.5231 118.602 63.561 118.401 63.5396C118.214 63.5314 118.032 63.4796 117.869 63.3883C117.727 63.3029 117.606 63.1868 117.514 63.0485C117.421 62.9066 117.355 62.7485 117.321 62.5822C117.283 62.4079 117.271 62.2292 117.284 62.0514C117.294 61.8968 117.322 61.7438 117.366 61.5951C117.408 61.4485 117.468 61.3071 117.542 61.1735C117.607 61.0477 117.691 60.9324 117.79 60.8312C117.891 60.7372 118.006 60.6609 118.132 60.6055C118.211 60.572 118.296 60.5592 118.381 60.5683C118.453 60.5764 118.522 60.602 118.582 60.6427C118.64 60.6818 118.687 60.7357 118.718 60.7989C118.749 60.8648 118.763 60.9373 118.758 61.0098C118.751 61.0858 118.725 61.1587 118.682 61.2214C118.638 61.2841 118.579 61.3343 118.51 61.3669C118.385 61.4369 118.284 61.5433 118.222 61.672C118.15 61.8055 118.108 61.9525 118.098 62.1035C118.087 62.2278 118.11 62.3526 118.162 62.4656C118.184 62.5138 118.219 62.5551 118.263 62.5848C118.306 62.6146 118.358 62.6317 118.41 62.6343C118.465 62.6391 118.52 62.6299 118.57 62.6078C118.619 62.5857 118.663 62.5513 118.696 62.5078C118.78 62.4011 118.851 62.2855 118.909 62.163C118.976 62.0242 119.043 61.8729 119.113 61.7067C119.176 61.5462 119.259 61.3945 119.361 61.2553C119.464 61.1174 119.596 61.0039 119.748 60.923C119.927 60.8307 120.129 60.7928 120.329 60.8138C120.505 60.822 120.676 60.8749 120.826 60.9676C120.963 61.0555 121.08 61.1723 121.168 61.3099C121.257 61.4519 121.32 61.6091 121.352 61.7737C121.386 61.9459 121.397 62.1218 121.386 62.297C121.372 62.5557 121.305 62.8088 121.19 63.041C121.094 63.2539 120.929 63.4284 120.721 63.5371C120.646 63.5811 120.56 63.6034 120.473 63.6016C120.399 63.5952 120.328 63.5676 120.27 63.5222C120.211 63.4773 120.165 63.4184 120.136 63.3511C120.103 63.2772 120.09 63.1959 120.098 63.1154C120.112 62.9803 120.174 62.8546 120.272 62.7608C120.355 62.6675 120.424 62.5621 120.476 62.4483C120.525 62.3394 120.555 62.2228 120.565 62.1035C120.572 62.0181 120.556 61.9323 120.518 61.8555C120.501 61.8162 120.472 61.7825 120.437 61.7584C120.401 61.7342 120.36 61.7206 120.317 61.7191Z" fill="#D0AD67"/>
<path d="M108.058 76.2256C105.141 76.4042 103.473 76.6993 105.191 72.0093C106.908 67.3193 103.739 65.9428 102.036 70.5758C100.333 75.2087 99.1321 74.7003 98.2633 71.4463C97.3946 68.1923 94.4831 69.5713 96.0295 73.6785C97.5758 77.7857 95.0118 77.9692 95.0118 77.9692C83.7456 88.8819 62.8489 91.8383 45.159 85.2634L56.3706 80.5808C71.839 74.7623 74.9689 69.4771 71.6528 64.0703C68.3368 58.6635 60.121 61.8853 60.121 61.8853L56.0579 64.0703C56.7826 54.1298 52.0716 52.8574 52.0716 52.8574C37.879 46.905 43.4811 80.1145 44.3771 84.9608C40.0207 83.2788 35.9256 80.9865 32.2149 78.1527C32.2149 78.1527 15.1555 62.8351 23.0907 43.1475C31.026 23.4599 36.6802 23.0979 36.6802 23.0979L36.6951 23.7055C38.2613 24.9629 41.5277 23.3558 40.9444 22.071C40.3611 20.7863 41.5674 20.5705 46.5713 19.0105C51.5752 17.4505 46.1345 16.5948 43.9105 16.203C41.6866 15.8111 45.5313 16.384 47.0702 12.9242C48.6091 9.46435 42.3344 11.6841 39.7207 13.2019C37.1071 14.7198 39.5966 10.3845 38.018 8.94102C36.4394 7.49756 34.9849 17.8498 34.9849 17.8498C34.7938 19.0899 33.58 20.0819 33.58 20.0819C26.66 23.1425 19.9782 34.9233 19.9782 34.9233C4.27897 58.8694 20.8295 83.113 20.8295 83.113C36.6156 107.89 61.8113 106.35 75.6838 102.503C89.5562 98.6563 98.797 83.0932 100.805 81.93C102.813 80.7668 110.974 76.0445 108.058 76.2256Z" fill="#FDB913"/>
<path d="M57.5049 28.0904C60.1012 25.3399 57.8326 21.1261 57.0284 21.5204C56.2242 21.9148 52.9602 24.7025 54.653 26.7809C55.4125 27.7134 55.8643 27.8573 56.0455 27.8573C55.847 27.9972 55.6782 28.175 55.5491 28.3806C54.586 29.7397 51.5777 27.7432 51.255 24.7596C50.9919 22.2372 55.5317 19.9431 56.9465 19.3032C57.1947 19.1841 57.361 19.1197 57.361 19.1197C57.361 19.1197 62.551 19.3379 60.9451 26.4362C59.3392 33.5344 51.7614 32.2522 49.4927 32.0141C47.2241 31.776 48.3063 35.216 48.3063 35.216C58.7882 35.7963 63.519 26.3915 64.5466 23.3359C65.5742 20.2804 59.3342 15.4341 55.1147 17.82C50.8951 20.206 47.6461 25.7863 49.3463 29.0056C51.0465 32.2249 54.9112 30.8434 57.5049 28.0904Z" fill="#FDB913"/>
<path d="M45.8742 39.2735C45.4125 38.6758 44.5066 38.1947 41.9575 38.713C42.7973 36.5823 43.8483 34.5409 45.0948 32.6193L45.1296 32.5622C45.899 31.1336 47.0358 28.5939 46.0157 27.577C45.2711 26.833 44.03 27.3687 43.1737 27.84C43.0248 27.9243 39.5201 29.9357 36.3107 34.6183C35.9682 35.1143 35.6232 35.6624 35.2831 36.2453C33.4017 33.6064 32.1929 33.3807 31.3788 33.532C30.9684 33.5889 30.5763 33.7383 30.2323 33.9691C29.8882 34.1998 29.6013 34.5058 29.3931 34.8638C28.4003 36.5999 29.2169 39.5761 30.4604 43.0881C28.0627 44.219 26.3253 45.1243 26.298 45.1392L26.2185 45.1789L26.1515 45.2384C23.7166 47.3738 23.6694 50.3078 24.7119 52.2672C25.3076 53.3957 26.2012 54.0554 27.0972 54.0554C27.2462 54.0558 27.3946 54.0374 27.539 54.0008C28.7801 53.6809 29.9938 53.289 31.1778 52.855C31.1977 54.4138 31.3029 55.9704 31.493 57.5177C31.627 58.6065 32.0539 60.1591 32.8557 61.2553C32.9964 61.4605 33.1844 61.6288 33.4038 61.7462C33.6232 61.8636 33.8677 61.9266 34.1165 61.9299C34.2198 61.9296 34.3229 61.9197 34.4243 61.9002C35.3725 61.7142 36.1792 60.7097 36.3405 60.0698C36.5416 59.2687 36.7749 58.1229 37.0678 56.6695L37.105 56.4835C37.7156 57.1705 38.3311 57.674 38.9244 57.8699C39.3282 58.0124 39.7522 58.0894 40.1803 58.0981C40.7386 58.1132 41.2808 57.9103 41.6919 57.5326C42.7915 56.5083 42.8709 54.224 41.9401 50.5484C41.8309 50.1119 41.5256 49.2091 41.0838 48.041C42.5011 47.1853 43.3847 46.5801 43.4889 46.5082L43.541 46.4685C43.7173 46.3073 48.3067 42.4258 45.8742 39.2735ZM37.4004 35.4715C40.3789 31.0815 43.7272 29.1222 43.8389 29.0577C44.5438 28.6708 44.8888 28.6088 45.0179 28.6039C45.1097 29.0652 44.6059 30.5557 43.9034 31.8702C42.4408 34.1527 41.23 36.5867 40.292 39.1297C39.4928 39.3628 38.5769 39.6679 37.5294 40.0573C37.033 39.0925 36.5614 38.2641 36.1246 37.5573C36.5465 36.7909 36.9759 36.0915 37.4004 35.4715ZM37.4525 48.3683C36.6135 48.8173 35.6952 49.2811 34.7222 49.7399C34.1339 48.5221 33.6052 47.3192 33.1932 46.2999L33.1188 46.0915C33.3099 45.0672 33.5432 44.1074 33.8063 43.1897C34.3598 42.9417 34.9232 42.6937 35.4916 42.4655C35.9533 42.2721 36.3877 42.096 36.8047 41.9298C37.3358 43.0161 37.8397 44.1248 38.2939 45.1838C37.9936 46.2602 37.7131 47.3267 37.4525 48.3683ZM39.1726 47.282C39.1875 47.3168 39.2024 47.354 39.2148 47.3912L39.1304 47.4408C39.1378 47.3887 39.1577 47.3341 39.1726 47.282ZM36.9883 50.2979C36.7774 51.2082 36.5837 52.0836 36.405 52.917C36.065 52.3341 35.7249 51.7141 35.3973 51.0792C35.9483 50.8188 36.477 50.5583 36.9883 50.2979ZM32.7191 48.971C32.9127 49.4026 33.1287 49.8713 33.362 50.3624L32.5975 50.6898C32.6248 50.102 32.6645 49.5316 32.7191 48.971ZM34.4218 41.2999C34.7023 40.531 35.0051 39.8118 35.3204 39.1297C35.5686 39.5712 35.8416 40.0573 36.1246 40.598C35.7324 40.7542 35.3278 40.9179 34.9034 41.094L34.4218 41.2999ZM38.1946 41.3966C38.7184 41.2031 39.1875 41.037 39.6417 40.9006C39.3984 41.5983 39.1668 42.2977 38.9467 42.9988C38.7109 42.4581 38.4602 41.9249 38.2021 41.3966H38.1946ZM30.6739 35.5955C30.775 35.4262 30.9147 35.2831 31.0817 35.178C31.2486 35.0728 31.438 35.0085 31.6345 34.9903C31.7536 34.968 32.6273 34.9258 34.464 37.7185C33.758 39.1144 33.1661 40.565 32.6943 42.0563L31.8057 42.4581C30.7707 39.5067 29.9963 36.7934 30.6739 35.5955ZM27.1543 52.5549C26.8887 52.6218 26.3898 52.2721 26.015 51.5628C25.5819 50.7119 25.449 49.7398 25.6377 48.804C25.8265 47.8682 26.3259 47.0234 27.055 46.4065C27.4149 46.2205 28.9364 45.4393 30.9544 44.4844C31.0388 44.7101 31.1232 44.9407 31.2026 45.1714C31.349 45.5757 31.4979 45.9824 31.6444 46.3892C31.3763 47.996 31.2196 49.6194 31.1753 51.2478C29.8605 51.7605 28.5181 52.1994 27.1543 52.5623V52.5549ZM35.6877 56.3892C35.3973 57.8228 35.169 58.9562 34.9754 59.7251C34.9208 59.9359 34.4789 60.4691 34.1439 60.5262C34.0917 60.5262 34.0545 60.5435 33.9701 60.4269C33.3664 59.4994 32.9882 58.4437 32.8656 57.3441C32.6602 55.6753 32.5574 53.9956 32.5578 52.3143C33.0542 52.1134 33.5506 51.9051 34.0297 51.6943C34.608 52.8373 35.2545 53.9446 35.9657 55.0103C35.8664 55.5013 35.7746 55.9626 35.6877 56.3967V56.3892ZM40.4781 50.9105C41.5678 55.1863 40.8976 56.2231 40.6643 56.4364C40.431 56.6497 40.0016 56.6596 39.3811 56.4537C38.8375 56.2702 38.1748 55.5732 37.4773 54.5886C37.8 53.0385 38.1773 51.285 38.629 49.4274C39.0261 49.2124 39.4042 49.0024 39.7633 48.7974C40.1307 49.787 40.3789 50.541 40.4781 50.918V50.9105ZM42.5904 45.3004C42.4365 45.407 41.6844 45.913 40.5104 46.6198C40.297 46.0866 40.0661 45.5236 39.8179 44.9432C40.2622 43.4179 40.7586 41.8827 41.3072 40.3847C44.2062 39.6208 44.6704 40.1366 44.6952 40.1763C46.1894 42.1208 42.9032 45.0375 42.5904 45.3078V45.3004Z" fill="#C5A153"/>
<path d="M35.5934 47.654C36.6174 47.654 37.4475 46.8246 37.4475 45.8013C37.4475 44.7781 36.6174 43.9487 35.5934 43.9487C34.5694 43.9487 33.7393 44.7781 33.7393 45.8013C33.7393 46.8246 34.5694 47.654 35.5934 47.654Z" fill="#C5A153"/>
<path d="M88.5485 46.8083L83.5347 49.2215C83.5347 49.2215 88.8563 52.8649 85.4136 53.5122C81.971 54.1595 78.9751 54.0082 79.7048 51.1585C80.1243 49.5241 78.1808 49.7101 76.4433 50.1664C75.0856 50.5261 73.9836 53.8867 74.4999 55.2012L79.5385 65.1467C79.5385 65.1467 76.8082 63.6338 74.9814 64.8615C73.1546 66.0891 75.0881 73.3288 79.1339 71.3719C83.1797 69.4151 81.4026 69.3158 81.4026 69.3158L84.5151 73.0857C84.8462 73.4864 85.2585 73.8124 85.7249 74.0423C86.1912 74.2722 86.701 74.4007 87.2207 74.4195C87.7403 74.4382 88.2581 74.3468 88.7398 74.1511C89.2215 73.9554 89.6563 73.6599 90.0154 73.2841L94.235 68.8645C94.235 68.8645 89.519 63.9686 92.7457 62.4507C95.9724 60.9329 98.4545 64.9036 98.4545 64.9036L100.383 61.2503C100.753 60.5507 100.902 59.7554 100.81 58.9695C100.719 58.1835 100.391 57.4437 99.8693 56.848L98.2733 55.0177C98.2733 55.0177 101.843 46.8455 96.3547 47.8847C90.8668 48.9239 94.4906 50.3326 94.4906 50.3326L92.2741 47.6292C91.8344 47.0959 91.2284 46.7252 90.5531 46.5763C89.8777 46.4275 89.1719 46.5092 88.5485 46.8083Z" fill="#C5A153"/>
<path d="M65.6635 53.1203C65.6064 52.9591 65.3582 52.4482 64.5639 52.5573C64.4547 52.5722 64.3529 52.5945 64.2487 52.6119C64.4131 52.3086 64.4591 51.9551 64.3778 51.6198C64.3207 51.4611 64.075 50.9477 63.2782 51.0593C62.8937 51.1094 62.5142 51.1923 62.1439 51.3073C61.3769 50.3153 60.0391 48.2245 60.327 45.97C60.7291 42.8499 61.9826 39.6952 57.8226 38.6932C53.6626 37.6912 43.0938 41.8852 49.8029 48.9611C51.4064 50.6526 52.0368 49.9532 55.1146 50.8138C56.7613 51.2796 58.1829 52.3265 59.1157 53.7602C59.019 53.9483 58.9361 54.143 58.8675 54.3431C58.8231 54.395 58.7871 54.4536 58.7608 54.5167C58.5573 54.9805 58.8551 55.4343 59.3987 56.0048C59.5533 56.1693 59.7622 56.2723 59.987 56.2949C59.987 56.662 60.255 57.039 60.6844 57.5028C60.7741 57.6004 60.8836 57.6779 61.0056 57.7301C61.1275 57.7823 61.2592 57.8079 61.3918 57.8054C61.7706 57.7826 62.1361 57.6574 62.4492 57.4433C62.6991 57.2864 62.9372 57.1115 63.1615 56.92C63.3591 57.077 63.5859 57.1933 63.8287 57.2623C64.0715 57.3312 64.3256 57.3515 64.5763 57.3217C65.4426 57.2151 65.0082 55.7444 64.8245 55.231C65.4475 54.4646 65.8546 53.6561 65.6635 53.1203ZM58.803 49.9804C58.6665 49.7126 57.2765 49.2364 56.2638 48.8718C54.0523 48.098 51.5478 47.22 51.1259 45.8262C51.0552 45.5688 51.05 45.2979 51.1107 45.038C51.1713 44.7782 51.296 44.5376 51.4734 44.338C51.8225 43.9325 52.2936 43.6506 52.8162 43.5345C52.8206 43.3675 52.8414 43.2014 52.8782 43.0384C53.1016 42.0464 54.1193 41.5255 55.4001 41.7512C56.9936 42.034 58.5498 43.3931 58.2991 45.3599C57.9243 48.2939 60.6149 51.2924 60.6422 51.3123L60.1458 51.7711C59.6504 51.2063 59.2106 50.595 58.8328 49.9457L58.803 49.9804ZM60.2004 55.045C60.1235 54.9582 60.0664 54.8887 60.0267 54.8366C60.1309 54.5092 60.7465 52.9095 62.958 52.4061C62.7373 52.7472 62.4882 53.0691 62.2134 53.3684C61.6333 53.7201 61.1315 54.1868 60.739 54.7399C60.5755 54.8655 60.3939 54.9659 60.2004 55.0375V55.045ZM61.4861 56.5331C61.4092 56.4463 61.3521 56.3768 61.3124 56.3247C61.4003 56.062 61.5222 55.8119 61.6748 55.5807C62.1436 55.2096 62.5834 54.8034 62.9903 54.3654C63.378 54.1454 63.7962 53.9841 64.2313 53.8867C63.6778 54.8069 62.1191 56.3396 61.4762 56.5355L61.4861 56.5331Z" fill="#C5A153"/>
<path d="M55.1074 45.8708C55.4028 45.9452 55.4623 45.8187 55.4995 45.6848C55.6758 45.0548 55.4847 44.596 54.9336 44.3232C54.5031 44.1317 54.03 44.0556 53.561 44.1024C53.7819 45.0003 54.5638 45.7344 55.1074 45.8708Z" fill="#C5A153"/>
<path d="M57.6218 45.2805C57.8179 43.7329 56.5645 42.6565 55.2812 42.4308C54.5887 42.3093 53.715 42.4308 53.5438 43.1947C53.5265 43.2682 53.5141 43.3428 53.5065 43.4179C54.1016 43.3608 54.7012 43.4627 55.244 43.713C56.0904 44.1322 56.4255 44.9184 56.1648 45.8658C56.1343 45.993 56.0774 46.1123 55.998 46.2162C55.9185 46.3201 55.8181 46.4063 55.7034 46.4691C55.5886 46.5319 55.4619 46.5701 55.3315 46.5811C55.2011 46.5921 55.0698 46.5757 54.9461 46.533C54.1295 46.3271 53.164 45.3772 52.8935 44.2264C52.5553 44.3082 52.2509 44.4928 52.0222 44.7547C51.9126 44.8679 51.8326 45.0062 51.7893 45.1577C51.746 45.3091 51.7408 45.4689 51.774 45.6228C52.0917 46.6843 54.6309 47.5722 56.49 48.2195C57.2346 48.4675 57.8105 48.6858 58.2672 48.8792C57.7284 47.7607 57.5053 46.5164 57.6218 45.2805Z" fill="#C5A153"/>
<path d="M15.893 144.396H13.7311C13.6895 144.402 13.6469 144.399 13.6067 144.386C13.5665 144.373 13.5298 144.351 13.4995 144.322C13.4692 144.293 13.4461 144.257 13.432 144.217C13.418 144.177 13.4133 144.135 13.4184 144.093V143.101C13.4069 143.005 13.4307 142.908 13.4854 142.828C13.5651 142.773 13.6623 142.749 13.7584 142.761H15.2949C15.3693 142.767 15.4442 142.756 15.5138 142.729C15.5834 142.702 15.646 142.66 15.697 142.605C15.7845 142.506 15.8323 142.378 15.831 142.245C15.8329 142.112 15.7851 141.983 15.697 141.883C15.646 141.829 15.5834 141.786 15.5138 141.759C15.4442 141.732 15.3693 141.721 15.2949 141.727H13.7584C13.6623 141.739 13.5651 141.715 13.4854 141.66C13.4307 141.58 13.4069 141.483 13.4184 141.387V140.618C13.4121 140.576 13.4159 140.532 13.4294 140.492C13.4429 140.451 13.4658 140.414 13.4961 140.384C13.5265 140.353 13.5636 140.33 13.6044 140.317C13.6452 140.303 13.6886 140.3 13.7311 140.306H15.8062C15.8806 140.312 15.9555 140.301 16.0251 140.274C16.0947 140.247 16.1573 140.204 16.2083 140.15C16.2959 140.05 16.3436 139.922 16.3423 139.79C16.3442 139.657 16.2964 139.528 16.2083 139.428C16.1578 139.372 16.0954 139.329 16.0257 139.301C15.9561 139.273 15.881 139.261 15.8062 139.267H13.3241C13.1901 139.266 13.0575 139.293 12.9344 139.346C12.8162 139.398 12.7085 139.471 12.6167 139.562C12.5265 139.652 12.4541 139.758 12.4032 139.874C12.3484 139.994 12.3204 140.124 12.3213 140.256V144.435C12.3206 144.569 12.3486 144.702 12.4032 144.825C12.4534 144.943 12.5259 145.051 12.6167 145.142C12.7086 145.232 12.8163 145.304 12.9344 145.355C13.0571 145.41 13.19 145.437 13.3241 145.435H15.9055C15.9799 145.441 16.0548 145.43 16.1244 145.403C16.194 145.376 16.2566 145.333 16.3075 145.279C16.3951 145.179 16.4429 145.051 16.4416 144.919C16.4431 144.784 16.3954 144.654 16.3075 144.552C16.2553 144.496 16.1906 144.452 16.1187 144.425C16.0468 144.398 15.9695 144.388 15.893 144.396Z" fill="#F7941D"/>
<path d="M22.5772 141.271C22.37 141.072 22.123 140.92 21.8524 140.824C21.56 140.721 21.2517 140.67 20.9415 140.673C20.6299 140.672 20.3203 140.723 20.0256 140.824C19.7379 140.922 19.4722 141.075 19.2438 141.276C19.0117 141.482 18.8271 141.735 18.7027 142.02C18.562 142.359 18.4935 142.724 18.5016 143.091C18.4985 143.409 18.5566 143.725 18.6729 144.021C18.7786 144.299 18.9409 144.553 19.1495 144.765C19.361 144.98 19.6145 145.149 19.8941 145.261C20.21 145.386 20.5474 145.446 20.8869 145.44H21.2965C21.3684 145.446 21.4407 145.435 21.5075 145.408C21.5743 145.38 21.6339 145.338 21.6812 145.284C21.7647 145.182 21.8096 145.055 21.8078 144.924C21.8096 144.791 21.7649 144.661 21.6812 144.557C21.6345 144.501 21.5752 144.458 21.5083 144.43C21.4414 144.402 21.3688 144.39 21.2965 144.396H20.8869C20.7126 144.406 20.5381 144.38 20.3747 144.318C20.2113 144.257 20.0628 144.161 19.9388 144.038C19.7111 143.781 19.5927 143.444 19.6086 143.101C19.604 142.893 19.6402 142.687 19.7154 142.493C19.7806 142.332 19.8776 142.185 20.0008 142.062C20.1193 141.951 20.2597 141.867 20.4128 141.814C20.5673 141.758 20.7302 141.73 20.8944 141.729C21.0561 141.73 21.2164 141.759 21.3684 141.814C21.5206 141.866 21.6596 141.95 21.7755 142.062C21.8971 142.185 21.9925 142.332 22.056 142.493C22.1317 142.684 22.1689 142.888 22.1652 143.094V144.969C22.1592 145.044 22.1697 145.121 22.1958 145.192C22.2219 145.264 22.2631 145.329 22.3166 145.383C22.4223 145.477 22.56 145.526 22.7013 145.522C22.8395 145.525 22.9736 145.475 23.0761 145.383C23.1296 145.329 23.1708 145.264 23.1969 145.192C23.223 145.121 23.2335 145.044 23.2275 144.969V142.984C23.2333 142.646 23.1761 142.31 23.0587 141.992C22.9516 141.72 22.7874 141.474 22.5772 141.271Z" fill="#F7941D"/>
<path d="M28.1517 140.755H27.8216C27.5546 140.755 27.2892 140.796 27.0348 140.876C26.792 140.952 26.5673 141.077 26.3745 141.243C26.1764 141.416 26.0187 141.63 25.9129 141.871C25.7915 142.159 25.7323 142.47 25.7391 142.784V144.971C25.7338 145.047 25.7445 145.123 25.7706 145.194C25.7967 145.266 25.8376 145.331 25.8905 145.385C25.9964 145.479 26.134 145.528 26.2752 145.524C26.4134 145.528 26.5476 145.478 26.65 145.385C26.704 145.331 26.7456 145.266 26.7722 145.195C26.7987 145.123 26.8096 145.047 26.8039 144.971V142.88C26.7985 142.711 26.8255 142.543 26.8834 142.384C26.9308 142.258 27.0054 142.144 27.1018 142.049C27.1955 141.962 27.3074 141.897 27.4294 141.858C27.5558 141.816 27.6883 141.795 27.8216 141.796H28.1517C28.2225 141.801 28.2935 141.789 28.3587 141.761C28.4239 141.733 28.4815 141.69 28.5265 141.635C28.6098 141.531 28.6545 141.401 28.6531 141.268C28.6548 141.136 28.61 141.008 28.5265 140.906C28.4802 140.853 28.4222 140.812 28.3571 140.786C28.292 140.76 28.2217 140.749 28.1517 140.755Z" fill="#F7941D"/>
<path d="M31.5028 138.592C31.3615 138.588 31.224 138.637 31.1181 138.731C31.0651 138.785 31.0243 138.851 30.9982 138.922C30.9721 138.993 30.9613 139.069 30.9666 139.145V144.971C30.9613 145.047 30.9721 145.123 30.9982 145.194C31.0243 145.266 31.0651 145.331 31.1181 145.385C31.224 145.479 31.3615 145.528 31.5028 145.524C31.641 145.528 31.7754 145.478 31.8776 145.385C31.9315 145.331 31.9732 145.266 31.9997 145.195C32.0263 145.123 32.0371 145.047 32.0315 144.971V139.148C32.0371 139.072 32.0263 138.995 31.9997 138.924C31.9732 138.852 31.9315 138.787 31.8776 138.733C31.7758 138.639 31.6413 138.589 31.5028 138.592Z" fill="#F7941D"/>
<path d="M38.7948 140.735C38.7088 140.691 38.6132 140.67 38.5168 140.673C38.413 140.672 38.311 140.7 38.2215 140.752C38.1275 140.812 38.0533 140.898 38.008 141L36.829 143.785C36.8205 143.813 36.8038 143.837 36.7812 143.855C36.7586 143.873 36.7311 143.883 36.7024 143.885C36.6553 143.885 36.618 143.85 36.5883 143.785L35.4142 141.003C35.3768 140.902 35.3089 140.815 35.22 140.754C35.1311 140.693 35.0255 140.661 34.9178 140.663C34.8206 140.66 34.7243 140.682 34.6373 140.725C34.5606 140.765 34.4956 140.824 34.4487 140.896C34.4023 140.971 34.3766 141.056 34.3742 141.144C34.3698 141.247 34.3911 141.349 34.4363 141.442L35.9652 144.969C36.0134 145.094 36.0928 145.205 36.1961 145.291L36.0993 145.514C36.0424 145.656 35.9734 145.793 35.8933 145.923C35.8352 146.017 35.7551 146.096 35.6599 146.152C35.5549 146.208 35.439 146.242 35.3199 146.251C35.1417 146.268 34.9627 146.275 34.7838 146.273C34.7045 146.268 34.625 146.28 34.5511 146.309C34.4772 146.338 34.4109 146.384 34.3568 146.442C34.265 146.544 34.2138 146.676 34.2129 146.814C34.2131 146.949 34.2645 147.079 34.3568 147.178C34.411 147.236 34.4775 147.281 34.5514 147.31C34.6253 147.339 34.7047 147.351 34.7838 147.345C35.032 147.345 35.2653 147.345 35.4738 147.317C35.6774 147.302 35.8758 147.245 36.0571 147.151C36.2579 147.045 36.4346 146.898 36.5758 146.72C36.7729 146.466 36.9341 146.186 37.0549 145.889L38.9835 141.442C39.0302 141.351 39.0525 141.249 39.048 141.147C39.0437 141.059 39.0191 140.974 38.976 140.899C38.9316 140.829 38.869 140.772 38.7948 140.735Z" fill="#F7941D"/>
<path d="M48.9544 144.396H46.7925C46.7508 144.402 46.7082 144.399 46.668 144.386C46.6278 144.373 46.5912 144.351 46.5609 144.322C46.5306 144.293 46.5075 144.257 46.4934 144.217C46.4793 144.177 46.4747 144.135 46.4797 144.093V143.101C46.4683 143.005 46.4921 142.908 46.5468 142.828C46.6265 142.773 46.7237 142.749 46.8198 142.761H48.3562C48.4307 142.767 48.5055 142.756 48.5751 142.729C48.6448 142.702 48.7074 142.66 48.7583 142.605C48.8459 142.506 48.8936 142.378 48.8923 142.245C48.8943 142.112 48.8465 141.983 48.7583 141.883C48.7074 141.829 48.6448 141.786 48.5751 141.759C48.5055 141.732 48.4307 141.721 48.3562 141.727H46.8322C46.7361 141.739 46.6389 141.715 46.5592 141.66C46.5045 141.58 46.4807 141.483 46.4922 141.387V140.618C46.4859 140.576 46.4897 140.532 46.5032 140.492C46.5167 140.451 46.5395 140.414 46.5699 140.384C46.6003 140.353 46.6374 140.33 46.6782 140.317C46.719 140.303 46.7624 140.3 46.8049 140.306H48.8774C48.9519 140.312 49.0268 140.301 49.0964 140.274C49.166 140.247 49.2286 140.204 49.2795 140.15C49.3671 140.05 49.4149 139.922 49.4136 139.79C49.4155 139.657 49.3677 139.528 49.2795 139.428C49.2286 139.373 49.166 139.331 49.0964 139.304C49.0268 139.277 48.9519 139.266 48.8774 139.272H46.3954C46.2614 139.271 46.1287 139.298 46.0057 139.351C45.8875 139.403 45.7798 139.476 45.688 139.567C45.5978 139.657 45.5254 139.763 45.4745 139.879C45.4196 139.999 45.3917 140.129 45.3926 140.261V144.44C45.3919 144.574 45.4199 144.707 45.4745 144.83C45.5247 144.948 45.5972 145.056 45.688 145.147C45.7799 145.237 45.8876 145.309 46.0057 145.36C46.1284 145.414 46.2613 145.442 46.3954 145.44H48.9767C49.0512 145.446 49.126 145.435 49.1957 145.408C49.2653 145.381 49.3279 145.338 49.3788 145.284C49.4664 145.184 49.5142 145.056 49.5129 144.924C49.5144 144.789 49.4667 144.659 49.3788 144.557C49.326 144.498 49.26 144.453 49.1862 144.425C49.1123 144.397 49.0329 144.387 48.9544 144.396Z" fill="#F7941D"/>
<path d="M54.405 143.074C54.393 143.06 54.3863 143.043 54.3863 143.025C54.3863 143.007 54.393 142.99 54.405 142.977L55.4773 141.521C55.549 141.436 55.5901 141.33 55.594 141.219C55.5954 141.122 55.5687 141.027 55.517 140.946C55.4664 140.864 55.3954 140.796 55.311 140.75C55.229 140.699 55.1344 140.673 55.038 140.673C54.9575 140.673 54.8782 140.692 54.8069 140.729C54.7355 140.766 54.6743 140.82 54.6284 140.886L53.7622 142.047C53.7551 142.058 53.7452 142.068 53.7335 142.074C53.7217 142.081 53.7086 142.084 53.6952 142.084C53.6826 142.085 53.6702 142.081 53.6596 142.075C53.649 142.068 53.6406 142.058 53.6356 142.047L52.7619 140.886C52.7107 140.819 52.6443 140.766 52.5683 140.73C52.4899 140.696 52.4053 140.68 52.3201 140.683C52.2219 140.683 52.1251 140.706 52.0371 140.75C51.9506 140.789 51.8767 140.852 51.8237 140.931C51.7735 141.011 51.7484 141.104 51.7517 141.199C51.7627 141.321 51.8113 141.437 51.8907 141.531L52.9456 142.932C52.9803 142.962 52.9803 142.994 52.9456 143.029L51.7393 144.673C51.6676 144.758 51.6265 144.865 51.6226 144.976C51.6212 145.072 51.6479 145.167 51.6996 145.249C51.7512 145.331 51.823 145.398 51.9081 145.445C51.9921 145.495 52.0881 145.522 52.1861 145.522C52.2599 145.521 52.3328 145.504 52.3995 145.472C52.4789 145.432 52.5464 145.372 52.5956 145.298L53.5884 143.949C53.6232 143.902 53.6654 143.902 53.7125 143.949L54.7327 145.306C54.7784 145.379 54.845 145.437 54.9238 145.472C55.002 145.506 55.0867 145.523 55.172 145.522C55.2678 145.521 55.3623 145.498 55.4475 145.455C55.534 145.413 55.607 145.347 55.6585 145.266C55.7089 145.183 55.7339 145.088 55.7305 144.991C55.7196 144.87 55.671 144.755 55.5915 144.664L54.405 143.074Z" fill="#F7941D"/>
<path d="M62.035 141.276C61.8066 141.075 61.5409 140.922 61.2531 140.824C60.9585 140.723 60.6489 140.671 60.3372 140.673C60.0271 140.67 59.7187 140.721 59.4263 140.824C59.1561 140.919 58.9097 141.071 58.704 141.271C58.494 141.476 58.3321 141.725 58.2299 142C58.1108 142.317 58.0527 142.653 58.0587 142.992V147.044C58.0528 147.121 58.0636 147.198 58.0901 147.27C58.1167 147.341 58.1584 147.407 58.2126 147.461C58.3172 147.555 58.4542 147.605 58.5948 147.6C58.7337 147.604 58.8687 147.554 58.9721 147.461C59.0253 147.406 59.0664 147.341 59.0925 147.269C59.1186 147.197 59.1292 147.121 59.1235 147.044V143.091C59.123 142.885 59.1635 142.681 59.2426 142.491C59.3078 142.329 59.4049 142.183 59.5281 142.059C59.6452 141.949 59.7838 141.865 59.9351 141.811C60.0887 141.755 60.2508 141.727 60.4142 141.727C60.5767 141.727 60.738 141.756 60.8907 141.811C61.0421 141.865 61.1807 141.949 61.2978 142.059C61.421 142.183 61.5181 142.329 61.5832 142.491C61.6584 142.684 61.6946 142.891 61.69 143.098C61.7059 143.442 61.5875 143.778 61.3599 144.036C61.2367 144.159 61.0886 144.255 60.9256 144.316C60.7625 144.378 60.5881 144.404 60.4142 144.393H59.9873C59.9149 144.388 59.8424 144.4 59.7755 144.428C59.7086 144.456 59.6494 144.499 59.6025 144.554C59.5207 144.659 59.4769 144.789 59.4784 144.921C59.477 145.052 59.5208 145.179 59.6025 145.281C59.6501 145.335 59.7097 145.377 59.7764 145.405C59.8432 145.432 59.9154 145.443 59.9873 145.437H60.3993C60.7387 145.443 61.0761 145.383 61.3921 145.259C61.6715 145.146 61.9249 144.977 62.1367 144.763C62.3453 144.55 62.5083 144.297 62.6158 144.019C62.7298 143.722 62.7871 143.406 62.7846 143.089C62.7927 142.721 62.7242 142.356 62.5835 142.017C62.4575 141.733 62.2702 141.479 62.035 141.276Z" fill="#F7941D"/>
<path d="M65.7975 138.592C65.6563 138.588 65.5187 138.637 65.4128 138.731C65.3593 138.785 65.3181 138.85 65.292 138.922C65.2659 138.993 65.2554 139.069 65.2614 139.145V144.971C65.2554 145.047 65.2659 145.123 65.292 145.195C65.3181 145.266 65.3593 145.331 65.4128 145.385C65.5187 145.479 65.6563 145.528 65.7975 145.524C65.9356 145.528 66.0698 145.478 66.1723 145.385C66.2258 145.331 66.267 145.266 66.2931 145.195C66.3192 145.123 66.3297 145.047 66.3237 144.971V139.148C66.3297 139.072 66.3192 138.996 66.2931 138.924C66.267 138.853 66.2258 138.788 66.1723 138.733C66.0702 138.64 65.936 138.589 65.7975 138.592Z" fill="#F7941D"/>
<path d="M72.9063 141.382C72.695 141.162 72.4419 140.985 72.1617 140.864C71.8523 140.734 71.5194 140.669 71.1837 140.673C70.8431 140.667 70.505 140.732 70.1909 140.864C69.9106 140.985 69.6574 141.162 69.4463 141.382C69.2378 141.605 69.075 141.866 68.9672 142.151C68.8527 142.452 68.7955 142.772 68.7985 143.094C68.7954 143.415 68.8527 143.733 68.9672 144.034C69.0755 144.32 69.2382 144.583 69.4463 144.807C69.6553 145.031 69.909 145.209 70.1909 145.328C70.5044 145.462 70.8428 145.528 71.1837 145.522C71.5197 145.526 71.8528 145.46 72.1617 145.328C72.4435 145.208 72.6972 145.031 72.9063 144.807C73.1145 144.583 73.2764 144.32 73.3829 144.034C73.4982 143.734 73.5563 143.415 73.5541 143.094C73.5563 142.771 73.4982 142.452 73.3829 142.151C73.2769 141.866 73.1149 141.604 72.9063 141.382ZM72.3702 143.637C72.3163 143.798 72.2321 143.947 72.122 144.076C72.0112 144.202 71.8739 144.302 71.7199 144.368C71.5495 144.443 71.3649 144.48 71.1788 144.477C70.9927 144.48 70.8081 144.443 70.6377 144.368C70.4844 144.3 70.3474 144.201 70.2356 144.076C70.1245 143.947 70.0401 143.798 69.9874 143.637C69.9284 143.462 69.8991 143.278 69.9005 143.094C69.8995 142.911 69.9288 142.73 69.9874 142.558C70.0395 142.396 70.124 142.247 70.2356 142.119C70.3479 141.994 70.4848 141.893 70.6377 141.824C70.8087 141.751 70.993 141.715 71.1788 141.717C71.3646 141.715 71.5489 141.751 71.7199 141.824C71.8735 141.892 72.0106 141.993 72.122 142.119C72.2326 142.248 72.3169 142.397 72.3702 142.558C72.4279 142.73 72.4564 142.912 72.4546 143.094C72.4568 143.278 72.4283 143.462 72.3702 143.637Z" fill="#F7941D"/>
<path d="M78.3546 140.755H78.022C77.7559 140.754 77.4913 140.795 77.2377 140.876C76.9942 140.952 76.7687 141.077 76.575 141.243C76.3776 141.416 76.2208 141.63 76.1158 141.871C75.9934 142.159 75.9341 142.47 75.9421 142.784V144.971C75.9361 145.047 75.9465 145.123 75.9727 145.195C75.9988 145.266 76.04 145.331 76.0935 145.385C76.1991 145.479 76.3369 145.529 76.4782 145.524C76.6162 145.527 76.7502 145.477 76.853 145.385C76.9064 145.331 76.9476 145.266 76.9738 145.195C76.9999 145.123 77.0103 145.047 77.0044 144.971V142.88C77.0002 142.711 77.0271 142.543 77.0838 142.384C77.1312 142.257 77.2068 142.143 77.3047 142.049C77.3979 141.963 77.5089 141.898 77.6299 141.858C77.7563 141.816 77.8888 141.795 78.022 141.796H78.3546C78.4254 141.801 78.4963 141.789 78.5614 141.761C78.6266 141.733 78.6841 141.69 78.7294 141.635C78.811 141.53 78.8547 141.401 78.8535 141.268C78.8549 141.137 78.8111 141.009 78.7294 140.906C78.683 140.853 78.625 140.812 78.5599 140.786C78.4949 140.76 78.4246 140.749 78.3546 140.755Z" fill="#F7941D"/>
<path d="M84.8848 141.271C84.6776 141.072 84.4306 140.92 84.1601 140.824C83.8676 140.721 83.5593 140.67 83.2491 140.673C82.9375 140.672 82.6279 140.723 82.3332 140.824C82.0455 140.922 81.7798 141.075 81.5514 141.276C81.3193 141.482 81.1347 141.735 81.0103 142.02C80.8696 142.359 80.8011 142.724 80.8092 143.091C80.8068 143.409 80.864 143.724 80.978 144.021C81.0856 144.299 81.2485 144.552 81.4571 144.765C81.6686 144.98 81.9221 145.149 82.2017 145.261C82.5176 145.386 82.855 145.446 83.1945 145.44H83.6041C83.6759 145.445 83.7481 145.434 83.8149 145.407C83.8817 145.38 83.9412 145.338 83.9888 145.284C84.0716 145.182 84.1156 145.055 84.1129 144.924C84.1157 144.791 84.0718 144.661 83.9888 144.557C83.942 144.502 83.8827 144.458 83.8158 144.43C83.7489 144.402 83.6764 144.39 83.6041 144.396H83.1945C83.0202 144.406 82.8457 144.38 82.6823 144.318C82.5189 144.257 82.3704 144.161 82.2464 144.038C82.0187 143.781 81.9003 143.444 81.9162 143.101C81.9116 142.893 81.9479 142.687 82.023 142.493C82.0882 142.332 82.1852 142.185 82.3084 142.062C82.4266 141.951 82.567 141.866 82.7205 141.814C82.875 141.758 83.0378 141.73 83.202 141.729C83.3636 141.73 83.524 141.759 83.6761 141.814C83.828 141.866 83.9668 141.951 84.0831 142.062C84.2039 142.186 84.2992 142.333 84.3636 142.493C84.4385 142.684 84.4748 142.888 84.4703 143.094V144.969C84.4647 145.045 84.4755 145.121 84.5021 145.192C84.5286 145.264 84.5703 145.329 84.6242 145.383C84.7288 145.477 84.8658 145.526 85.0064 145.522C85.1454 145.525 85.2804 145.476 85.3837 145.383C85.4367 145.328 85.4775 145.263 85.5036 145.192C85.5297 145.12 85.5404 145.044 85.5351 144.969V142.984C85.5411 142.646 85.483 142.309 85.3639 141.992C85.2585 141.72 85.095 141.474 84.8848 141.271Z" fill="#F7941D"/>
<path d="M90.7379 143.173C90.5979 143.167 90.4613 143.217 90.3581 143.312C90.3055 143.366 90.265 143.432 90.2393 143.503C90.2137 143.574 90.2034 143.65 90.2092 143.726V143.942C90.2155 144.023 90.2044 144.104 90.1766 144.18C90.1487 144.256 90.1048 144.326 90.0478 144.383C89.9496 144.477 89.8189 144.529 89.683 144.53C89.5481 144.528 89.4187 144.476 89.3206 144.383C89.2627 144.326 89.2179 144.257 89.1892 144.181C89.1605 144.104 89.1486 144.023 89.1543 143.942V141.844C89.1526 141.832 89.1536 141.821 89.1571 141.81C89.1606 141.8 89.1666 141.79 89.1746 141.782C89.1825 141.774 89.1923 141.768 89.203 141.764C89.2137 141.761 89.2251 141.76 89.2362 141.762H90.3085C90.3795 141.766 90.4507 141.755 90.5165 141.728C90.5823 141.7 90.641 141.659 90.6882 141.605C90.7716 141.509 90.8174 141.386 90.8173 141.258C90.8175 141.131 90.7736 141.007 90.6932 140.909C90.6455 140.855 90.5859 140.812 90.5192 140.785C90.4524 140.758 90.3803 140.747 90.3085 140.752H89.2362C89.1816 140.752 89.1543 140.727 89.1543 140.673V139.887C89.1602 139.811 89.1498 139.735 89.1237 139.663C89.0976 139.592 89.0564 139.527 89.0029 139.472C88.9004 139.38 88.7662 139.33 88.6281 139.334C88.4868 139.329 88.3493 139.379 88.2434 139.472C88.1899 139.527 88.1487 139.592 88.1226 139.663C88.0965 139.735 88.086 139.811 88.092 139.887V143.979C88.0871 144.21 88.1347 144.439 88.2309 144.649C88.3174 144.831 88.4408 144.993 88.5933 145.125C88.7433 145.254 88.9182 145.351 89.1071 145.41C89.2952 145.473 89.4922 145.505 89.6904 145.504C89.8879 145.505 90.0842 145.473 90.2712 145.41C90.4592 145.35 90.6331 145.253 90.7825 145.125C90.9343 144.993 91.0561 144.831 91.14 144.649C91.2334 144.438 91.2791 144.209 91.274 143.979V143.731C91.2796 143.655 91.2688 143.579 91.2422 143.507C91.2157 143.436 91.174 143.371 91.1201 143.317C91.016 143.221 90.8791 143.17 90.7379 143.173Z" fill="#F7941D"/>
<path d="M94.24 138.942C94.1563 138.94 94.0731 138.955 93.9957 138.987C93.9184 139.02 93.8486 139.067 93.7907 139.128C93.7315 139.186 93.6848 139.255 93.6532 139.332C93.6216 139.409 93.6059 139.491 93.607 139.574C93.6055 139.657 93.621 139.74 93.6526 139.816C93.6842 139.893 93.7312 139.963 93.7907 140.021C93.8481 140.082 93.9177 140.13 93.9952 140.163C94.0726 140.195 94.156 140.211 94.24 140.209C94.3251 140.212 94.4099 140.197 94.4887 140.164C94.5675 140.132 94.6384 140.083 94.6967 140.021C94.7546 139.962 94.8002 139.892 94.8309 139.815C94.8616 139.739 94.8767 139.657 94.8754 139.574C94.8772 139.408 94.813 139.247 94.6967 139.128C94.638 139.066 94.5669 139.018 94.4882 138.986C94.4095 138.954 94.3249 138.939 94.24 138.942Z" fill="#F7941D"/>
<path d="M94.2402 140.673C94.1021 140.669 93.9679 140.719 93.8654 140.812C93.812 140.866 93.7708 140.931 93.7446 141.002C93.7185 141.074 93.7081 141.15 93.714 141.226V144.971C93.7081 145.047 93.7185 145.123 93.7446 145.195C93.7708 145.266 93.812 145.331 93.8654 145.385C93.9679 145.478 94.1021 145.528 94.2402 145.524C94.3816 145.529 94.5193 145.479 94.6249 145.385C94.6784 145.331 94.7196 145.266 94.7457 145.195C94.7719 145.123 94.7823 145.047 94.7764 144.971V141.228C94.7823 141.153 94.7719 141.076 94.7457 141.005C94.7196 140.933 94.6784 140.868 94.6249 140.814C94.5197 140.719 94.3819 140.669 94.2402 140.673Z" fill="#F7941D"/>
<path d="M101.366 141.382C101.155 141.162 100.902 140.985 100.622 140.864C100.312 140.734 99.9794 140.669 99.6437 140.673C99.3031 140.667 98.965 140.732 98.6509 140.864C98.3706 140.985 98.1174 141.162 97.9063 141.382C97.6978 141.605 97.535 141.866 97.4272 142.151C97.3127 142.452 97.2554 142.772 97.2584 143.094C97.2554 143.415 97.3127 143.733 97.4272 144.034C97.5355 144.32 97.6982 144.583 97.9063 144.807C98.1153 145.031 98.3689 145.209 98.6509 145.328C98.9644 145.462 99.3028 145.528 99.6437 145.522C99.9796 145.526 100.313 145.46 100.622 145.328C100.903 145.208 101.157 145.031 101.366 144.807C101.574 144.583 101.736 144.32 101.843 144.034C101.958 143.734 102.016 143.415 102.014 143.094C102.016 142.771 101.958 142.452 101.843 142.151C101.737 141.866 101.575 141.604 101.366 141.382ZM100.83 143.637C100.776 143.798 100.692 143.947 100.582 144.076C100.471 144.202 100.334 144.302 100.18 144.368C100.009 144.443 99.8249 144.48 99.6387 144.477C99.4526 144.48 99.2681 144.443 99.0977 144.368C98.9444 144.3 98.8073 144.201 98.6956 144.076C98.5844 143.947 98.5001 143.798 98.4473 143.637C98.3884 143.462 98.359 143.278 98.3605 143.094C98.3594 142.911 98.3888 142.73 98.4473 142.558C98.4995 142.396 98.5839 142.247 98.6956 142.119C98.8079 141.994 98.9448 141.893 99.0977 141.824C99.2687 141.751 99.4529 141.715 99.6387 141.717C99.8246 141.715 100.009 141.751 100.18 141.824C100.333 141.892 100.471 141.993 100.582 142.119C100.693 142.248 100.777 142.397 100.83 142.558C100.888 142.73 100.916 142.912 100.915 143.094C100.917 143.278 100.888 143.462 100.83 143.637Z" fill="#F7941D"/>
<path d="M107.984 141.204C107.787 141.029 107.557 140.894 107.308 140.807C107.054 140.717 106.786 140.672 106.517 140.673C106.248 140.672 105.981 140.717 105.727 140.807C105.478 140.893 105.249 141.028 105.052 141.204C104.851 141.387 104.691 141.611 104.583 141.861C104.461 142.152 104.401 142.466 104.409 142.781V144.969C104.403 145.044 104.414 145.121 104.44 145.192C104.466 145.264 104.507 145.329 104.561 145.383C104.666 145.477 104.804 145.526 104.945 145.522C105.084 145.525 105.218 145.475 105.32 145.383C105.374 145.329 105.415 145.264 105.441 145.192C105.467 145.121 105.478 145.044 105.472 144.969V142.878C105.468 142.709 105.497 142.54 105.556 142.382C105.607 142.247 105.685 142.124 105.784 142.02C105.877 141.922 105.99 141.846 106.115 141.796C106.242 141.745 106.379 141.718 106.517 141.72C106.654 141.718 106.791 141.744 106.919 141.796C107.044 141.845 107.157 141.922 107.249 142.02C107.349 142.123 107.427 142.247 107.477 142.382C107.537 142.54 107.565 142.709 107.562 142.878V144.969C107.556 145.045 107.567 145.121 107.593 145.192C107.62 145.264 107.662 145.329 107.715 145.383C107.818 145.476 107.952 145.526 108.09 145.522C108.232 145.526 108.369 145.476 108.475 145.383C108.529 145.329 108.572 145.265 108.6 145.194C108.628 145.123 108.64 145.047 108.636 144.971V142.784C108.643 142.468 108.584 142.155 108.463 141.863C108.352 141.612 108.189 141.387 107.984 141.204Z" fill="#F7941D"/>
<path d="M114.345 143.423C114.236 143.255 114.093 143.11 113.925 142.999C113.755 142.887 113.569 142.798 113.374 142.736C113.176 142.669 112.992 142.605 112.826 142.543C112.676 142.491 112.535 142.417 112.406 142.325C112.352 142.287 112.307 142.236 112.278 142.176C112.248 142.117 112.233 142.051 112.235 141.985C112.231 141.936 112.24 141.888 112.261 141.844C112.283 141.8 112.316 141.763 112.357 141.737C112.447 141.685 112.55 141.659 112.654 141.663C112.796 141.664 112.935 141.69 113.066 141.742C113.205 141.793 113.335 141.865 113.451 141.955C113.568 142.064 113.721 142.128 113.881 142.134C113.975 142.136 114.067 142.114 114.151 142.072C114.229 142.033 114.296 141.975 114.345 141.903C114.393 141.829 114.419 141.743 114.419 141.655C114.418 141.548 114.386 141.444 114.327 141.355C114.185 141.121 113.97 140.94 113.714 140.842C113.435 140.725 113.136 140.666 112.833 140.668C112.627 140.668 112.422 140.695 112.223 140.747C112.032 140.797 111.852 140.881 111.691 140.995C111.537 141.108 111.408 141.253 111.314 141.419C111.217 141.605 111.168 141.812 111.173 142.022C111.162 142.259 111.221 142.493 111.341 142.697C111.45 142.867 111.593 143.013 111.761 143.126C111.933 143.237 112.118 143.327 112.312 143.394C112.511 143.461 112.694 143.53 112.86 143.6C113.009 143.656 113.15 143.731 113.28 143.823C113.334 143.858 113.378 143.906 113.408 143.963C113.438 144.02 113.453 144.083 113.451 144.148C113.454 144.211 113.438 144.273 113.406 144.327C113.375 144.382 113.328 144.426 113.273 144.455C113.144 144.527 112.998 144.563 112.851 144.559C112.674 144.558 112.5 144.52 112.339 144.448C112.182 144.385 112.049 144.274 111.959 144.13C111.917 144.049 111.854 143.981 111.777 143.932C111.7 143.884 111.611 143.856 111.52 143.852C111.434 143.852 111.348 143.873 111.272 143.914C111.2 143.955 111.14 144.014 111.098 144.086C111.054 144.161 111.029 144.246 111.026 144.334C111.023 144.432 111.044 144.53 111.088 144.619C111.161 144.763 111.26 144.894 111.379 145.003C111.504 145.118 111.646 145.212 111.801 145.284C111.959 145.36 112.126 145.419 112.297 145.46C112.474 145.5 112.654 145.52 112.836 145.522C113.046 145.521 113.256 145.493 113.459 145.437C113.65 145.384 113.83 145.296 113.99 145.177C114.145 145.06 114.271 144.909 114.36 144.735C114.456 144.538 114.504 144.32 114.499 144.1C114.513 143.865 114.46 143.63 114.345 143.423Z" fill="#F7941D"/>
<path d="M62.4223 46.6868C64.9937 46.848 68.5356 45.2508 68.6771 45.8659C68.8186 46.4809 71.6556 58.1427 72.574 52.5846C73.4924 47.0266 73.7753 42.7557 74.5125 42.7557C75.838 42.7557 87.4045 41.094 84.4409 38.9859C81.4773 36.8777 72.1843 37.773 71.8418 32.0835C71.4993 26.394 69.1785 20.1018 67.3889 33.7453C67.3889 33.7453 61.3177 33.5989 60.4391 34.1818C58.642 35.3822 65.2369 39.0578 65.6018 39.2934C65.9667 39.529 60.8908 46.5901 62.4223 46.6868Z" fill="#F7941D"/>
<path d="M108.018 62.4508C107.058 62.3342 112.094 33.6411 84.2844 18.1152C84.2844 18.1152 73.4352 11.3394 57.5349 11.6147C57.5349 11.6147 53.298 10.6003 51.4637 9.34778C49.6294 8.09529 47.7927 5.47128 45.395 7.3066C42.9973 9.14193 43.459 10.3994 44.9433 9.70987C46.4276 9.02039 49.5078 10.4118 48.3214 13.1995C47.1349 15.9872 47.1896 18.9982 50.1904 16.456C53.1913 13.9138 66.8427 15.7913 72.8941 22.5448C75.3216 25.2506 71.0995 33.9809 81.2835 35.0945C91.4676 36.2081 100.644 42.6962 102.267 51.6075C103.89 60.5187 102.994 65.3228 100.823 66.7018C98.6507 68.0808 99.0057 71.2802 100.376 69.678C101.746 68.0758 105.874 63.8322 106.385 67.1978C106.896 70.5634 106.556 75.1344 108.673 73.4206C110.791 71.7068 108.979 62.5673 108.018 62.4508Z" fill="#F7941D"/>
<path d="M82.356 75.8189C65.9916 74.8268 58.5527 84.5168 58.5527 84.5168C58.5527 84.5168 62.9163 85.99 70.7919 85.37C78.6676 84.7499 82.356 75.8189 82.356 75.8189Z" fill="#F7941D"/>
<path d="M39.2768 71.3297C38.284 70.8337 38.0011 70.7618 37.9266 70.7767L38.9939 65.8734C38.9939 65.8734 33.3049 64.3034 31.1976 63.4949L30.6491 64.6854C30.6491 64.6854 28.1174 69.9334 29.6339 71.8779C29.7667 72.2145 29.9977 72.5035 30.2969 72.7074C30.5961 72.9112 30.9497 73.0206 31.3118 73.0212C31.79 73.0206 32.2483 72.8303 32.5862 72.4922C32.924 72.1542 33.1138 71.6959 33.1138 71.2181C33.1138 70.7404 32.924 70.2821 32.5862 69.9441C32.2483 69.606 31.79 69.4157 31.3118 69.4151C31.1177 69.4155 30.9249 69.4473 30.7409 69.5093C30.6367 68.6611 31.3515 67.049 31.3515 67.049L36.6731 68.2419C36.6731 68.2419 34.9357 73.9885 35.9633 74.2117C36.9908 74.4349 41.2749 72.3268 39.2768 71.3297Z" fill="#F7941D"/>
<path d="M51.63 109.009C51.2367 108.814 50.8194 108.672 50.3889 108.587C49.8468 108.465 49.2939 108.396 48.7383 108.384C47.1803 108.326 45.6323 108.656 44.2333 109.343C43.7593 109.569 43.0692 110.07 42.1186 110.871C41.446 111.471 40.8693 112.17 40.4084 112.945C39.7234 113.897 39.0656 115.219 38.3979 116.98C38.0976 117.771 37.765 118.84 37.4051 120.169C37.3133 120.522 37.1693 121.055 36.9583 121.796C36.7474 122.538 36.5885 123.123 36.4768 123.562V123.58C36.2411 123.583 36.012 123.658 35.8207 123.796C35.6293 123.933 35.4849 124.126 35.407 124.348L35.3897 124.41C35.3223 124.678 35.275 124.95 35.2482 125.224C35.2291 125.394 35.2445 125.567 35.2936 125.732C35.3426 125.896 35.4242 126.049 35.5336 126.181C35.7479 126.421 36.0487 126.567 36.3701 126.586C36.457 126.6 36.8392 126.67 38.5196 127.032C38.8256 127.109 39.1398 127.149 39.4553 127.151C39.7268 127.159 39.9925 127.072 40.2055 126.903C40.4185 126.735 40.5651 126.497 40.6194 126.231C40.6881 125.97 40.7338 125.704 40.7559 125.435C40.7847 125.272 40.7797 125.106 40.7413 124.945C40.7028 124.785 40.6318 124.634 40.5325 124.502C40.3186 124.253 40.0158 124.097 39.6886 124.068H39.634L39.6837 123.895C39.778 123.562 39.85 123.307 39.8971 123.126C39.9443 122.945 40.0709 122.508 40.4357 121.37L40.8676 121.417C41.1158 121.479 41.4509 121.556 41.8853 121.65C42.3197 121.744 42.6647 121.814 42.8955 121.853L45.3329 122.424C45.4893 122.463 45.7971 122.533 46.2438 122.627L46.6583 122.719C46.5665 123.084 46.4225 123.565 46.2265 124.157C46.1123 124.505 46.0279 124.74 45.9783 124.901C45.8037 124.859 45.623 124.848 45.4446 124.869C45.1646 124.921 44.9126 125.071 44.7347 125.293L44.6652 125.373L44.6181 125.469C44.5167 125.679 44.4288 125.896 44.355 126.117C44.2591 126.364 44.2491 126.636 44.3265 126.889C44.4039 127.142 44.5643 127.362 44.7819 127.513C45.0353 127.697 45.3304 127.814 45.6407 127.855C46.2476 128.006 46.8418 128.205 47.4179 128.448C47.7831 128.604 48.1655 128.715 48.5571 128.78C48.6167 128.784 48.6763 128.784 48.7359 128.78C48.9598 128.788 49.1805 128.726 49.368 128.604C49.5555 128.481 49.7006 128.304 49.7833 128.096V128.064C49.9082 127.743 50.0022 127.41 50.0638 127.072C50.1631 126.382 49.5674 125.988 49.0709 125.752L49.1106 125.628C49.1578 125.479 49.2099 125.313 49.267 125.132C49.3241 124.951 49.344 124.906 49.344 124.906L49.3837 124.835L49.4085 124.753C49.6791 123.842 49.9322 122.895 50.1531 121.935C50.3045 121.273 50.4212 120.747 50.4981 120.373C50.8829 118.51 51.2155 116.809 51.491 115.298C51.769 113.602 51.903 112.771 51.9278 112.605V112.568C51.98 112.01 52.0867 111.238 52.243 110.278C52.3061 110.028 52.2793 109.764 52.1672 109.532C52.0552 109.3 51.865 109.115 51.63 109.009ZM48.5497 112.994C48.4306 113.612 48.3362 114.162 48.2742 114.636V114.673C48.2354 115.022 48.1682 115.367 48.0731 115.705V115.747C48.0012 116.094 47.8969 116.672 47.7604 117.463C47.6239 118.255 47.5122 118.815 47.4104 119.2L47.2962 119.646L46.8917 119.577C46.3952 119.495 45.9857 119.41 45.673 119.329H45.6283C45.3155 119.267 44.9531 119.187 44.5486 119.081C44.144 118.974 43.8039 118.912 43.583 118.877L43.0543 118.768C42.7069 118.699 42.3172 118.616 41.8853 118.52L41.3392 118.406C41.7533 117.158 42.338 115.974 43.0767 114.887C43.9231 113.694 44.7794 112.823 45.6084 112.307C46.1909 111.959 46.829 111.713 47.4948 111.58C47.9216 111.529 48.3533 111.537 48.7781 111.603C48.7061 112.049 48.6291 112.518 48.5497 112.989V112.994Z" fill="#754C29"/>
<path d="M69.4193 109.973C68.9552 109.953 68.7789 109.941 68.7169 109.934L68.6548 109.916H68.5357C67.8804 109.916 67.1184 109.946 66.2447 110.008C65.4654 110.087 65.1973 110.544 65.1055 110.809L65.0881 110.864C64.9765 111.327 64.9521 111.807 65.0161 112.28V112.325C65.0538 112.616 65.2011 112.882 65.4281 113.069C65.5547 113.165 65.7001 113.235 65.855 113.272C65.5771 114.576 65.4852 114.939 65.4579 115.038C65.4306 115.137 65.3437 115.402 65.17 116.122C65.0459 116.643 64.9962 116.824 64.9789 116.886L64.9565 116.957C64.8697 117.265 64.7083 117.925 64.4601 119.028C64.3633 119.453 64.2119 120.149 64.0109 121.104C63.8098 122.059 63.6485 122.756 63.5144 123.232V123.257C63.4722 123.446 63.43 123.622 63.3928 123.788C63.1893 123.019 62.9113 122.017 62.5539 120.772C62.4471 120.358 62.2858 119.8 62.0748 119.113C61.8638 118.426 61.7124 117.912 61.6131 117.558C61.2532 116.293 60.9157 115.025 60.6203 113.778C60.5012 113.339 60.4093 112.942 60.3423 112.595C60.5043 112.558 60.6572 112.489 60.7916 112.391C60.9419 112.284 61.0633 112.141 61.1447 111.975C61.2262 111.81 61.2652 111.626 61.2582 111.442C61.2905 110.608 61.288 110.576 61.288 110.534C61.2815 110.236 61.1571 109.953 60.9421 109.747C60.7271 109.541 60.4391 109.429 60.1413 109.435C59.8423 109.409 59.5417 109.409 59.2428 109.435L58.5378 109.455C58.1531 109.455 57.8304 109.485 57.5773 109.51C57.3932 109.519 57.21 109.541 57.0287 109.574L56.8078 109.614H56.7483C56.4886 109.641 56.2426 109.743 56.0408 109.909C55.831 110.103 55.7003 110.368 55.6735 110.653C55.6034 111.04 55.5834 111.434 55.6139 111.826V111.908C55.6494 112.101 55.7377 112.281 55.8691 112.427C56.0006 112.573 56.17 112.68 56.3586 112.736C56.5854 112.796 56.8189 112.828 57.0535 112.83C57.0908 112.999 57.1404 113.21 57.1975 113.468C57.2463 113.713 57.3084 113.956 57.3837 114.195L57.5549 114.939C57.6195 115.219 57.6989 115.534 57.8031 115.869C57.9074 116.204 57.9521 116.417 57.9918 116.613V116.645C58.2574 117.677 58.4559 118.408 58.58 118.823C58.681 119.153 58.8258 119.637 59.0144 120.273C59.213 120.948 59.3594 121.424 59.4513 121.709C59.5431 121.995 59.62 122.292 59.7193 122.664C59.8186 123.036 59.9055 123.346 59.9675 123.577C60.2157 124.445 60.4639 125.298 60.6551 126.099C60.8462 126.953 61.0894 127.865 61.3699 128.805C61.6504 129.745 61.6727 129.815 61.6876 129.857L61.7174 129.926C61.8105 130.134 61.9618 130.31 62.153 130.433C62.3442 130.556 62.5671 130.621 62.7946 130.621H62.9659C63.3093 130.619 63.6524 130.599 63.9935 130.559C64.3001 130.551 64.5935 130.433 64.82 130.226C65.0298 130.016 65.176 129.75 65.242 129.46C65.2916 129.272 65.3561 129.021 65.4306 128.716C65.5051 128.411 65.5572 128.22 65.6044 128.056L65.6192 127.997C65.6192 127.952 65.7309 127.516 66.2993 125.097C66.4309 124.544 66.6046 123.778 66.8255 122.793C67.0464 121.809 67.2227 121.057 67.3716 120.484C67.7414 118.939 68.0616 117.692 68.3222 116.764V116.714C68.3222 116.685 68.3595 116.568 68.4836 116.134C68.5829 115.784 68.6722 115.462 68.7566 115.169C68.841 114.877 68.8683 114.77 68.8906 114.673C69.181 113.706 69.2853 113.391 69.3225 113.289L69.3498 113.237H69.5707C69.8312 113.228 70.0795 113.125 70.2698 112.948C70.4602 112.77 70.5795 112.529 70.6058 112.27C70.7063 111.799 70.7063 111.312 70.6058 110.841C70.5661 110.608 70.3501 110.001 69.4193 109.973Z" fill="#754C29"/>
<path d="M88.0893 122.898C88.0703 122.713 88.0103 122.536 87.9136 122.378C87.817 122.22 87.6862 122.086 87.5308 121.985C87.3719 121.892 87.1943 121.836 87.011 121.821C86.8277 121.806 86.6432 121.831 86.471 121.896C86.2502 121.98 86.0354 122.079 85.8281 122.193C85.5667 122.298 85.3487 122.489 85.2101 122.734C85.0918 122.991 85.0638 123.28 85.1307 123.555V123.592C85.1307 123.607 85.1307 123.622 85.1307 123.637L85.0488 123.664C84.0162 124.063 82.8819 124.433 81.6706 124.768C81.6036 124.611 81.5267 124.44 81.4398 124.249C81.2859 123.912 81.1544 123.607 81.0501 123.337C80.8433 122.806 80.6704 122.353 80.5314 121.977C81.113 121.719 81.7088 121.494 82.316 121.303C82.3504 121.45 82.4146 121.589 82.5046 121.711C82.5947 121.833 82.7087 121.936 82.8397 122.012C82.9677 122.081 83.1083 122.125 83.2532 122.139C83.3981 122.154 83.5444 122.139 83.6836 122.096C84.0291 122.034 84.3635 121.921 84.6764 121.762C84.8843 121.646 85.0501 121.468 85.15 121.252C85.2499 121.036 85.2788 120.794 85.2324 120.561C85.2175 120.464 85.1704 120.244 84.6491 118.451C84.6268 118.376 84.5821 118.227 84.5052 117.922C84.4431 117.674 84.396 117.471 84.3662 117.32L84.3438 117.23C84.2965 117.037 84.2044 116.858 84.0751 116.707C83.9458 116.555 83.7828 116.437 83.5992 116.36C83.4239 116.312 83.2408 116.3 83.0609 116.325C82.8809 116.35 82.7078 116.411 82.5518 116.504C82.3424 116.59 82.1377 116.688 81.9387 116.796C81.76 116.893 81.1941 117.292 81.3579 118.222V118.284C80.7496 118.531 80.1291 118.746 79.4988 118.929C79.3797 118.56 79.1488 117.781 78.7045 116.174V116.146C78.7045 116.109 78.6326 115.898 78.3248 114.609C78.2677 114.381 78.1783 113.996 78.0518 113.456C77.9252 112.915 77.8234 112.488 77.7489 112.193C77.6083 111.661 77.4858 111.165 77.3816 110.705C77.8281 110.504 78.2855 110.327 78.7517 110.177L78.8311 110.149L78.8957 110.117C79.0096 110.062 79.1274 110.014 79.2481 109.976C79.469 109.896 79.6651 109.827 79.8388 109.772L80.3204 109.616C80.5487 109.544 80.921 109.42 81.4348 109.244C81.9486 109.068 82.3483 108.947 82.7032 108.852L82.7777 108.827C83.0077 108.741 83.2442 108.672 83.485 108.622L83.557 108.85C83.6027 109.004 83.6817 109.147 83.7884 109.268C83.8952 109.389 84.0272 109.485 84.1751 109.549C84.4671 109.659 84.789 109.659 85.081 109.549C85.3423 109.485 85.5986 109.402 85.848 109.301C86.3171 109.135 86.7639 108.632 86.5281 107.736V107.697C86.4983 107.6 86.4561 107.449 86.404 107.27C86.3519 107.091 86.3022 106.905 86.2799 106.831C86.2014 106.594 86.1392 106.352 86.0937 106.107C86.0811 105.934 86.0322 105.765 85.9503 105.612C85.8684 105.459 85.7552 105.325 85.6181 105.218C85.481 105.112 85.323 105.035 85.1544 104.993C84.9858 104.951 84.8103 104.945 84.6392 104.976L84.5052 105.006L83.4528 105.316C83.2443 105.383 82.9985 105.452 82.723 105.521C82.4475 105.591 82.1522 105.673 81.899 105.742C81.6458 105.812 81.3753 105.896 81.0873 105.99C80.5016 106.179 79.752 106.429 78.8113 106.752L76.5774 107.525L76.5253 107.545C75.9121 107.755 75.3183 108.017 74.7506 108.329C74.4459 108.488 74.2001 108.74 74.0487 109.048C73.8974 109.356 73.8485 109.705 73.9091 110.043C74.005 110.88 74.1609 111.708 74.3758 112.523L74.7257 113.922C74.8995 114.619 75.041 115.162 75.1527 115.566V115.596C75.17 115.655 75.2172 115.812 75.3239 116.213C75.3797 116.404 75.4252 116.598 75.4605 116.794L75.4778 116.873C75.5548 117.173 75.7484 117.835 76.0735 118.912C76.239 119.421 76.4045 119.93 76.5699 120.44C76.7437 120.948 76.9497 121.536 77.188 122.176C77.4263 122.816 77.5926 123.304 77.7043 123.664L77.7316 123.738C77.8011 123.897 77.8979 124.14 78.0145 124.44V124.47C78.5589 125.743 78.8725 126.481 78.9552 126.682L78.9949 126.764C79.0123 126.796 79.057 126.881 79.1364 127.067C79.2159 127.253 79.2853 127.399 79.3474 127.523L79.3673 127.563C79.4518 127.73 79.571 127.877 79.7169 127.995C79.8629 128.112 80.0322 128.198 80.2136 128.245C80.3454 128.276 80.4804 128.291 80.6157 128.289C80.7872 128.288 80.9582 128.272 81.1271 128.242H81.1568C81.5267 128.165 82.2241 127.962 83.284 127.622C84.4903 127.233 85.3044 126.953 85.7661 126.769C86.2278 126.586 87.5035 126.104 87.6128 126.065L87.7344 126.013C88.0708 125.872 88.3383 125.605 88.479 125.269C88.567 124.962 88.5522 124.636 88.4368 124.339C88.2961 123.865 88.1801 123.384 88.0893 122.898Z" fill="#754C29"/>
<path d="M108.08 106.873C107.229 105.668 106.656 104.872 106.38 104.517C106.196 104.269 106.008 104.021 105.822 103.753C116.157 95.4296 121.652 83.5322 122.159 68.3659L120.173 68.299C119.677 82.803 114.464 94.1721 104.682 102.119L104.494 101.848C103.565 100.608 102.627 99.3855 101.696 98.2272C101.418 97.8874 101.22 97.6419 101.078 97.4608C101.243 97.3097 101.367 97.1195 101.438 96.9077C101.529 96.5747 101.488 96.2194 101.324 95.9157C101.156 95.4639 100.82 95.0944 100.386 94.884C100.22 94.8056 100.038 94.7663 99.8542 94.7688C99.6706 94.7714 99.4899 94.8159 99.326 94.8988C99.0074 95.0707 98.7115 95.2815 98.4449 95.5263C98.3531 95.6057 98.1098 95.809 97.4843 96.32C96.7769 96.8929 96.6082 97.0442 96.5238 97.126C96.3797 97.2529 96.267 97.4114 96.1947 97.5892C96.1223 97.7669 96.0922 97.959 96.1068 98.1503L96.1192 98.2173C96.271 98.7541 96.6275 99.2101 97.112 99.4871L97.1393 99.502C97.344 99.6164 97.5766 99.6711 97.8109 99.6602C98.0451 99.6492 98.2717 99.573 98.4648 99.44C99.0629 100.147 99.6164 100.846 100.118 101.523L100.14 101.551C100.304 101.757 100.671 102.228 101.232 102.957C101.793 103.686 102.138 104.133 102.305 104.336C103.049 105.375 103.565 106.102 103.908 106.568C104.121 106.866 104.362 107.198 104.633 107.56C104.037 107.339 103.57 107.153 103.245 107.014C101.376 106.196 100.048 105.631 99.3062 105.333C98.5094 105.006 97.5538 104.589 96.4741 104.075C95.9777 103.827 95.2331 103.503 94.2601 103.083C93.3517 102.684 92.6542 102.374 92.1851 102.161C91.9317 102.018 91.6437 101.948 91.3531 101.96C91.0625 101.971 90.7808 102.063 90.5394 102.225C90.2441 102.411 89.5913 102.86 88.5538 103.597C88.1219 103.902 87.8737 104.537 88.3403 105.214C88.6803 105.737 88.9286 106.007 89.1867 106.146C89.3451 106.227 89.5191 106.272 89.6966 106.278C89.8742 106.284 90.0509 106.251 90.2143 106.181C90.4153 106.484 90.6735 106.858 90.9986 107.317C91.4826 108.002 91.6762 108.309 91.7433 108.431L91.7656 108.468C93.1506 110.519 94.0367 111.838 94.4438 112.436L94.8781 113.049C95.1512 113.436 95.2926 113.659 95.3746 113.775L96.6553 115.593C96.8216 115.827 97.0524 116.164 97.3528 116.603C97.6531 117.042 97.8641 117.347 97.9708 117.503L98.3779 118.076C98.2139 118.25 98.1013 118.467 98.0527 118.701C97.9832 119.115 98.1892 119.515 98.5218 119.986C98.6225 120.147 98.7616 120.28 98.9267 120.374C99.0918 120.468 99.2776 120.52 99.4675 120.524H99.4923C99.7648 120.503 100.03 120.425 100.269 120.293L100.339 120.256C100.887 119.916 101.415 119.544 101.92 119.142C102.275 118.877 103.22 118.165 102.766 117.339C102.621 117.06 102.439 116.801 102.225 116.571C102.134 116.457 102.021 116.362 101.893 116.293C101.828 116.258 101.766 116.231 101.701 116.203C101.464 116.118 101.203 116.129 100.974 116.233L100.907 116.164L99.8001 114.596C99.3608 113.914 98.9413 113.307 98.5591 112.806C98.3332 112.486 98.0056 112 97.5836 111.355C97.1616 110.71 96.7819 110.147 96.484 109.725C96.0149 109.063 95.377 108.128 94.5828 106.945C94.5604 106.903 94.5306 106.858 94.4984 106.809C94.8012 106.935 95.0246 107.027 95.176 107.084C95.4863 107.215 95.9702 107.424 96.623 107.711C96.9358 107.868 97.7251 108.207 99.0307 108.741L101.071 109.581C101.319 109.693 101.751 109.877 102.391 110.142C103.032 110.407 103.516 110.606 103.858 110.742C105.025 111.288 106.225 111.761 107.45 112.158H107.475C107.882 112.308 108.329 112.308 108.736 112.158C109.234 111.952 109.671 111.623 110.006 111.201C110.6 110.437 109.925 109.482 109.704 109.17L108.08 106.873Z" fill="#754C29"/>
<path d="M35.71 107.148L35.7844 107.181L35.8787 107.215C36.0518 107.281 36.2366 107.31 36.4216 107.301C36.6065 107.292 36.7876 107.245 36.9535 107.163C37.262 106.961 37.4997 106.668 37.6336 106.325C37.9141 105.812 37.9563 105.358 37.7552 104.976C37.6063 104.696 37.3283 104.452 36.7921 104.14C36.6904 104.075 36.4422 103.912 35.839 103.5C35.4852 103.241 35.1089 103.015 34.7146 102.823C34.3349 102.615 33.9328 102.453 33.5282 102.605C33.28 102.699 33.064 102.892 32.7116 103.349L32.6768 103.396L32.6272 103.458C32.58 103.515 32.5428 103.562 32.5205 103.594C32.38 103.75 32.2856 103.941 32.2479 104.147C32.2102 104.353 32.2306 104.565 32.307 104.76C32.4465 105.051 32.6628 105.299 32.9325 105.477H32.9524C32.8605 105.603 32.7439 105.76 32.5949 105.953L32.5701 105.988C32.2946 106.384 31.9595 106.89 31.5773 107.491C30.8327 108.654 30.1873 109.624 29.6686 110.41L28.4573 109.703C26.6057 108.627 24.8185 107.587 23.2449 106.442C23.652 105.858 23.9771 105.389 24.2204 105.035L24.2353 105.013C24.3743 104.795 24.6225 104.433 24.9675 103.937C25.3125 103.441 25.588 103.046 25.7419 102.803C26.0182 102.372 26.2838 101.99 26.5386 101.657C26.6429 101.717 26.7248 101.764 26.7868 101.801L26.834 101.828C27.5265 102.208 28.1172 101.952 28.4076 101.526C28.5915 101.271 28.7519 100.999 28.8867 100.715C29.0169 100.472 29.0599 100.192 29.0084 99.9208C28.9569 99.65 28.8141 99.4051 28.6037 99.2267C28.4642 99.0999 28.306 98.9953 28.1346 98.9167C27.5971 98.6138 27.0759 98.2826 26.5734 97.9247L25.799 97.4286L25.7195 97.384C25.5685 97.3035 25.4028 97.254 25.2324 97.2382C25.0619 97.2225 24.89 97.2408 24.7267 97.2922C24.4218 97.4152 24.156 97.6183 23.9573 97.88C23.6445 98.2446 23.3591 98.6464 23.4087 99.1003C23.4474 99.3764 23.5808 99.6305 23.786 99.8195C23.4683 100.333 23.1382 100.831 22.7932 101.308L22.7708 101.345C22.6914 101.469 22.5226 101.697 22.2893 102.047C22.056 102.396 21.8475 102.689 21.7209 102.887C21.6812 102.947 21.2592 103.542 20.7281 104.306L20.6313 104.209C17.696 101.179 14.9952 97.9308 12.5521 94.4921L12.5322 94.4549C2.20918 79.7946 -0.560827 64.2861 4.30655 48.2071C8.77432 33.4625 18.3477 23.7278 18.4421 23.6311L17.0372 22.2323C16.6301 22.6366 7.05422 32.3613 2.43009 47.5573C-0.300214 56.5107 -0.69983 65.484 1.22875 74.2266C2.82226 81.4613 6.02664 88.5446 10.7848 95.3849C13.051 99.4895 15.8603 103.27 19.137 106.625C18.663 107.352 18.3031 107.892 18.0697 108.227C17.8364 108.562 17.0769 109.743 15.7515 111.811C15.591 111.721 15.4124 111.667 15.2287 111.654C15.045 111.641 14.8606 111.67 14.6891 111.737C14.3764 111.868 14.1133 112.146 13.813 112.667C13.3984 113.331 13.5151 114.038 14.1133 114.47L14.992 115.03C15.1749 115.14 15.3514 115.26 15.5206 115.39L16.9007 116.278C17.7148 116.796 18.2956 116.466 18.5538 116.139C18.6607 116.018 18.757 115.887 18.8417 115.75L19.0303 115.454C19.2538 115.189 19.3698 114.849 19.3555 114.502C19.3271 114.301 19.2477 114.11 19.1248 113.947C19.0018 113.785 18.8395 113.657 18.653 113.575L18.514 113.488C18.8342 113.009 19.2934 112.315 19.8817 111.417L19.9685 111.293V111.28L21.6241 108.939C23.5307 110.584 25.6433 111.975 27.9088 113.076L26.2457 115.33C26.0546 115.603 25.8015 115.963 25.4837 116.422C25.1338 116.918 24.8111 117.374 24.5257 117.764C24.3696 117.693 24.2004 117.657 24.0292 117.657C23.8581 117.657 23.6889 117.693 23.5328 117.764C23.2071 117.947 22.9416 118.221 22.7683 118.552L22.7261 118.627C22.5842 118.884 22.5269 119.179 22.5623 119.47C22.5961 119.717 22.7054 119.947 22.8751 120.13C23.0053 120.26 23.1455 120.379 23.2945 120.487C23.513 120.648 23.8629 120.889 24.3693 121.231C24.8756 121.573 25.2628 121.809 25.5657 121.975C25.8188 122.127 26.1067 122.213 26.4021 122.223C26.4913 122.223 26.5803 122.214 26.6677 122.196C27.0416 122.095 27.3652 121.86 27.5762 121.536L27.6109 121.486C27.6882 121.36 27.7586 121.23 27.8219 121.097C27.9647 120.853 28.0164 120.566 27.9678 120.287C27.9192 120.008 27.7734 119.756 27.5563 119.574C27.4868 119.512 27.4123 119.45 27.3304 119.388C27.4504 119.209 27.5797 119.037 27.7176 118.872C27.8816 118.677 28.0349 118.474 28.1768 118.262L28.9363 117.245C29.3086 116.749 29.5941 116.36 29.8125 116.055C30.6093 114.872 31.3663 113.77 32.0613 112.783C32.3095 112.441 32.6917 111.846 33.2179 111.02C33.7441 110.194 34.1115 109.629 34.3051 109.341C34.4987 109.053 34.6998 108.738 34.8586 108.475C35.0175 108.212 35.1689 107.979 35.355 107.684C35.4692 107.473 35.5908 107.302 35.71 107.148Z" fill="#754C29"/>
</g>
<defs>
<clipPath id="clip0_461_175">
<rect width="123" height="147.6" fill="white"/>
</clipPath>
</defs>
</svg>
